<svg xmlns="http://www.w3.org/2000/svg" width="19.751" height="13.333" viewBox="0 0 19.751 13.333">
  <path id="Icon_zocial-email" data-name="Icon zocial-email" d="M.072,16.22V5.249q0-.019.057-.362l6.457,5.524L.148,16.6a1.614,1.614,0,0,1-.076-.381ZM.929,4.125a.821.821,0,0,1,.324-.057h17.39a1.079,1.079,0,0,1,.343.057L12.51,9.668l-.857.686-1.7,1.39-1.7-1.39L7.4,9.668ZM.948,17.344l6.495-6.228,2.514,2.038,2.514-2.038,6.495,6.228a.915.915,0,0,1-.324.057H1.253a.863.863,0,0,1-.3-.057Zm12.38-6.933,6.438-5.524a1.137,1.137,0,0,1,.057.362V16.22a1.46,1.46,0,0,1-.057.381Z" transform="translate(-0.072 -4.068)" fill="#acacac"/>
</svg>
