<svg id="phone_1_" data-name="phone (1)" xmlns="http://www.w3.org/2000/svg" width="20.8" height="20.796" viewBox="0 0 20.8 20.796">
  <path id="Caminho_27" data-name="Caminho 27" d="M281.848,0a.406.406,0,1,0,0,.812A8.157,8.157,0,0,1,290,8.96a.406.406,0,0,0,.813,0A8.97,8.97,0,0,0,281.848,0Zm0,0" transform="translate(-270.008)" fill="#acacac"/>
  <path id="Caminho_28" data-name="Caminho 28" d="M287.958,67.079a.406.406,0,0,0,.406-.406,6.524,6.524,0,0,0-6.516-6.516.406.406,0,1,0,0,.812,5.71,5.71,0,0,1,5.7,5.7A.406.406,0,0,0,287.958,67.079Zm0,0" transform="translate(-270.008 -57.712)" fill="#acacac"/>
  <path id="Caminho_29" data-name="Caminho 29" d="M285.107,124.4a.406.406,0,0,0,.813,0,4.077,4.077,0,0,0-4.072-4.072.406.406,0,1,0,0,.812A3.263,3.263,0,0,1,285.107,124.4Zm0,0" transform="translate(-270.008 -115.44)" fill="#acacac"/>
  <path id="Caminho_30" data-name="Caminho 30" d="M281.441,180.891a.406.406,0,0,0,.406.406.817.817,0,0,1,.816.816.406.406,0,1,0,.812,0,1.63,1.63,0,0,0-1.628-1.628A.406.406,0,0,0,281.441,180.891Zm0,0" transform="translate(-270.008 -173.152)" fill="#acacac"/>
  <path id="Caminho_31" data-name="Caminho 31" d="M168.246,315.086a.406.406,0,1,1-.406-.406A.406.406,0,0,1,168.246,315.086Zm0,0" transform="translate(-160.632 -301.896)" fill="#acacac"/>
  <path id="Caminho_32" data-name="Caminho 32" d="M11.131,89.436a4.83,4.83,0,0,0,5.538-.933l.84-.84a1.165,1.165,0,0,0,0-1.65l-3.246-3.245a1.165,1.165,0,0,0-1.649,0l-1.379,1.379a.8.8,0,0,1-.991.131A15.237,15.237,0,0,1,8.811,83.24a.406.406,0,0,0-.514.629,16.025,16.025,0,0,0,1.51,1.094,1.621,1.621,0,0,0,2-.241l1.379-1.379a.353.353,0,0,1,.5,0l3.246,3.245a.353.353,0,0,1,0,.5l-.84.84a4.017,4.017,0,0,1-4.606.778A22.511,22.511,0,0,1,1.219,78.384,3.987,3.987,0,0,1,2,73.795l.822-.822a.353.353,0,0,1,.5,0l3.246,3.246a.353.353,0,0,1,0,.5L5.187,78.1a1.621,1.621,0,0,0-.241,2c.234.367.487.729.751,1.075a.406.406,0,1,0,.646-.492c-.25-.329-.49-.672-.713-1.02a.8.8,0,0,1,.131-.991L7.14,77.294a1.165,1.165,0,0,0,0-1.649L3.895,72.4a1.165,1.165,0,0,0-1.649,0l-.821.821a4.8,4.8,0,0,0-.934,5.524A23.318,23.318,0,0,0,11.131,89.436Zm0,0" transform="translate(0.001 -69.13)" fill="#acacac"/>
</svg>
