<svg xmlns="http://www.w3.org/2000/svg" width="15.088" height="21.489" viewBox="0 0 15.088 21.489">
  <g id="pin-de-localizacao" transform="translate(-0.5)">
    <path id="Caminho_385" data-name="Caminho 385" d="M15.588,7.544A7.544,7.544,0,1,0,1.736,11.683l6.308,9.806,6.308-9.806A7.514,7.514,0,0,0,15.588,7.544ZM13.3,11l0,.006-5.25,8.162L2.793,11l0-.006A6.287,6.287,0,1,1,13.3,11Zm0,0" fill="#acacac"/>
    <path id="Caminho_386" data-name="Caminho 386" d="M94.143,89.871a3.772,3.772,0,1,0,3.772,3.772A3.776,3.776,0,0,0,94.143,89.871Zm0,6.287a2.515,2.515,0,1,1,2.515-2.515A2.518,2.518,0,0,1,94.143,96.158Zm0,0" transform="translate(-86.099 -86.099)" fill="#acacac"/>
  </g>
</svg>
