<svg id="Grupo_2775" data-name="Grupo 2775" xmlns="http://www.w3.org/2000/svg" width="239.951" height="368.963" viewBox="0 0 239.951 368.963">
  <g id="Grupo_266" data-name="Grupo 266" transform="translate(0 0)">
    <g id="Grupo_265" data-name="Grupo 265" transform="translate(0 0)">
      <g id="Grupo_177" data-name="Grupo 177" transform="translate(15.52 136.761)">
        <g id="Grupo_133" data-name="Grupo 133" transform="translate(23.267 133.449)">
          <g id="Grupo_132" data-name="Grupo 132">
            <path id="Caminho_27" data-name="Caminho 27" d="M2593.172,2326.026s-6.567,26.364,1.753,49.222,10.358-18.126,23.235-27.247Z" transform="translate(-2590.71 -2326.026)" fill="#fe3601"/>
          </g>
        </g>
        <g id="Grupo_135" data-name="Grupo 135" transform="translate(23.122 133.504)" opacity="0.5">
          <g id="Grupo_134" data-name="Grupo 134">
            <path id="Caminho_28" data-name="Caminho 28" d="M2667.239,2368.677c-4.122,11.474-6.853,20.538-11.809,6.907-8.323-22.863-1.749-49.219-1.749-49.219l.4.354c-1.454,8.566-3.519,27.539,2.679,44.569,4.222,11.592,6.819,6.764,10.039-1.995C2669.41,2362.2,2670.03,2360.9,2667.239,2368.677Z" transform="translate(-2651.216 -2326.365)" fill="#fff"/>
          </g>
        </g>
        <g id="Grupo_137" data-name="Grupo 137" transform="translate(21.864 132.04)">
          <g id="Grupo_136" data-name="Grupo 136">
            <path id="Caminho_29" data-name="Caminho 29" d="M2592.209,2376.168h.01c3.258-.013,5.107-5.189,7.895-13.019,2.808-7.859,6.3-17.639,11.518-21.336a1.412,1.412,0,0,0,.117-2.209l-24.985-21.973a1.407,1.407,0,0,0-2.3.717,100.673,100.673,0,0,0-2.284,16.291c-.559,8.758-.3,21.712,4.076,33.755C2588.242,2373.843,2590.019,2376.168,2592.209,2376.168Zm16.427-35.549c-5.153,4.71-8.469,14-11.173,21.581-1.147,3.222-2.234,6.262-3.266,8.386-1.3,2.684-1.983,2.759-1.985,2.759h0c-.018,0-1.212-.16-3.307-5.915-4.21-11.56-4.452-24.082-3.911-32.552a106.333,106.333,0,0,1,1.713-13.546Z" transform="translate(-2581.965 -2317.279)" fill="#112770"/>
          </g>
        </g>
        <g id="Grupo_139" data-name="Grupo 139" transform="translate(23.707 133.504)" opacity="0.3">
          <g id="Grupo_138" data-name="Grupo 138">
            <path id="Caminho_30" data-name="Caminho 30" d="M2618.473,2348.338c-5.2,3.683-8.635,12.565-11.425,20.339-1.815-4.139,1.53-12.541-2.3-17.906-2.246-3.142-6.376-6.168-13.145-12.719a92.984,92.984,0,0,1,1.883-11.686Z" transform="translate(-2591.608 -2326.365)" fill="#112770"/>
          </g>
        </g>
        <g id="Grupo_141" data-name="Grupo 141" transform="translate(62.031 155.86)">
          <g id="Grupo_140" data-name="Grupo 140">
            <path id="Caminho_31" data-name="Caminho 31" d="M2294.776,2473.732c-7.14-18.746-46.958-3.582-39.815,15.166s34.679,31.192,34.679,31.192S2301.919,2492.481,2294.776,2473.732Z" transform="translate(-2254.107 -2465.158)" fill="#fd6008"/>
          </g>
        </g>
        <g id="Grupo_143" data-name="Grupo 143" transform="translate(69.337 163.16)">
          <g id="Grupo_142" data-name="Grupo 142">
            <path id="Caminho_32" data-name="Caminho 32" d="M2323.716,2547.759c.719-2.239,1.479-4.863,2.143-7.713,2.46-10.559,2.5-19.44.117-25.686-.466-1.235-1.479-2.948-4.84-3.621a23.231,23.231,0,0,0-20.114,7.67c-2.068,2.731-1.687,4.685-1.216,5.919,2.38,6.239,8.327,12.845,17.181,19.1C2319.38,2545.114,2321.689,2546.568,2323.716,2547.759Z" transform="translate(-2299.434 -2510.48)" fill="#fdbc01"/>
          </g>
        </g>
        <g id="Grupo_145" data-name="Grupo 145" transform="translate(62.033 167.743)" opacity="0.5">
          <g id="Grupo_144" data-name="Grupo 144">
            <path id="Caminho_33" data-name="Caminho 33" d="M2254.961,2550.781c7.145,18.756,34.679,31.2,34.679,31.2s10.912-24.529,6.178-43.047c1.613,14.306-4.055,30.43-6.249,36.005a2.034,2.034,0,0,1-2.8,1.077c-6.41-3.245-26.6-14.463-32.651-30.094A12.483,12.483,0,0,0,2254.961,2550.781Z" transform="translate(-2254.109 -2538.93)" fill="#fff"/>
          </g>
        </g>
        <g id="Grupo_147" data-name="Grupo 147" transform="translate(62.04 155.448)" opacity="0.3">
          <g id="Grupo_146" data-name="Grupo 146">
            <path id="Caminho_34" data-name="Caminho 34" d="M2257.342,2486.751c.062.163.119.322.188.479a33.461,33.461,0,0,0,3.437,6.362s2.138-8.482,16.471-13.945S2299,2479.1,2299,2479.1a33.73,33.73,0,0,0-1.667-7.034c-.059-.164-.119-.324-.176-.485a13.673,13.673,0,0,0-1.123-2.264,37.555,37.555,0,0,0-3.154-3.362c-9-6.727-21.969-2.325-29.763,4.181-4.193,3.5-7.426,8.486-6.452,14.173A13.514,13.514,0,0,0,2257.342,2486.751Z" transform="translate(-2256.494 -2462.599)" fill="#112770"/>
          </g>
        </g>
        <g id="Grupo_149" data-name="Grupo 149" transform="translate(1.42 1.409)">
          <g id="Grupo_148" data-name="Grupo 148">
            <path id="Caminho_35" data-name="Caminho 35" d="M2277.751,1607.184c17.672,46.4,47.529,69.841,71.008,60.9s31.694-46.884,14.016-93.286c-12.617-33.126-46.28-56.364-64.506-66.943a11.636,11.636,0,0,0-16.889,6.432C2274.808,1534.312,2265.135,1574.056,2277.751,1607.184Z" transform="translate(-2271.606 -1506.28)" fill="#eeedee"/>
          </g>
        </g>
        <g id="Grupo_151" data-name="Grupo 151" transform="translate(7.871 1.409)">
          <g id="Grupo_150" data-name="Grupo 150">
            <path id="Caminho_36" data-name="Caminho 36" d="M2669.746,1525.442a139.091,139.091,0,0,1,30.115-11.473c-3.6-2.361-6.953-4.4-9.9-6.115a11.632,11.632,0,0,0-16.887,6.43C2672.01,1517.525,2670.862,1521.279,2669.746,1525.442Z" transform="translate(-2669.746 -1506.28)" fill="#fe3601"/>
          </g>
        </g>
        <g id="Grupo_153" data-name="Grupo 153" transform="translate(7.871 1.409)">
          <g id="Grupo_152" data-name="Grupo 152">
            <path id="Caminho_37" data-name="Caminho 37" d="M2669.746,1525.442a139.091,139.091,0,0,1,30.115-11.473c-3.6-2.361-6.953-4.4-9.9-6.115a11.632,11.632,0,0,0-16.887,6.43C2672.01,1517.525,2670.862,1521.279,2669.746,1525.442Z" transform="translate(-2669.746 -1506.28)" fill="#fe3601"/>
          </g>
        </g>
        <g id="Grupo_155" data-name="Grupo 155" transform="translate(7.871 1.409)" opacity="0.5">
          <g id="Grupo_154" data-name="Grupo 154">
            <path id="Caminho_38" data-name="Caminho 38" d="M2673.071,1514.286a11.632,11.632,0,0,1,16.887-6.43c2.95,1.714,6.3,3.754,9.9,6.115-1.063.267-2.134.55-3.206.853-2.314-1.456-4.491-2.764-6.483-3.923-.145-.083-.286-.159-.429-.236a.952.952,0,0,1,0,.211c-.11,1.1-2.216,1.794-4.7,1.543s-4.406-1.351-4.3-2.451c0-.027.007-.05.009-.073a11.571,11.571,0,0,0-7.476,7.438c-.741,2.255-1.515,4.757-2.3,7.474-.415.211-.825.423-1.237.638C2670.862,1521.279,2672.01,1517.525,2673.071,1514.286Z" transform="translate(-2669.746 -1506.28)" fill="#fff"/>
          </g>
        </g>
        <g id="Grupo_157" data-name="Grupo 157" transform="translate(1.419 9.101)">
          <g id="Grupo_156" data-name="Grupo 156">
            <path id="Caminho_39" data-name="Caminho 39" d="M2277.756,1647.247c17.674,46.4,47.527,69.843,71.008,60.9,7.991-3.044,14.212-9.445,18.247-18.4,4.749-10.53,6.471-24.594,4.484-40.868a145.968,145.968,0,0,0-8.708-34.02c-10.584-27.772-35.948-48.587-54.609-60.827a139.278,139.278,0,0,0-30.115,11.471C2272.268,1587.063,2267.179,1619.476,2277.756,1647.247Z" transform="translate(-2271.611 -1554.035)" fill="#eeedee"/>
          </g>
        </g>
        <g id="Grupo_159" data-name="Grupo 159" transform="translate(60.619 154.449)">
          <g id="Grupo_158" data-name="Grupo 158">
            <path id="Caminho_40" data-name="Caminho 40" d="M2282.311,2514.148a1.439,1.439,0,0,0,.5-.092,1.4,1.4,0,0,0,.783-.743,100.82,100.82,0,0,0,5.33-16.4,76.671,76.671,0,0,0,2.141-15.341,40.841,40.841,0,0,0-2.3-15.7h0c-1.833-4.82-5.735-7.95-11.273-9.053a31.817,31.817,0,0,0-28.778,10.953c-3.4,4.517-4.231,9.45-2.393,14.27a41.006,41.006,0,0,0,8.719,13.251,77.475,77.475,0,0,0,11.8,10.032,101.489,101.489,0,0,0,14.894,8.692A1.369,1.369,0,0,0,2282.311,2514.148Zm3.815-47.262c3.555,9.333,2,21.1.07,29.333a104.956,104.956,0,0,1-4.619,14.6,104.5,104.5,0,0,1-13.169-7.831c-6.912-4.861-15.9-12.612-19.463-21.949-1.865-4.883.066-8.988,2.017-11.567a28.984,28.984,0,0,1,25.967-9.888c3.167.625,7.337,2.405,9.2,7.3Zm1.314-.506h0Z" transform="translate(-2245.361 -2456.396)" fill="#112770"/>
          </g>
        </g>
        <g id="Grupo_161" data-name="Grupo 161" transform="translate(6.461)">
          <g id="Grupo_160" data-name="Grupo 160">
            <path id="Caminho_41" data-name="Caminho 41" d="M2662.409,1519.514a1.464,1.464,0,0,0,.657-.162,135.142,135.142,0,0,1,14.569-6.543,136.837,136.837,0,0,1,15.232-4.811,1.407,1.407,0,0,0,.427-2.546c-3.25-2.131-6.6-4.2-9.968-6.155a13.041,13.041,0,0,0-18.931,7.212c-1.213,3.694-2.341,7.472-3.347,11.229a1.41,1.41,0,0,0,1.362,1.776Zm26.669-13.43c-4.155,1.151-8.329,2.523-12.446,4.09s-8.149,3.324-12.015,5.227c.765-2.687,1.588-5.374,2.456-8.015a10.227,10.227,0,0,1,14.842-5.654C2684.318,1503.131,2686.716,1504.589,2689.078,1506.085Z" transform="translate(-2660.998 -1497.532)" fill="#112770"/>
          </g>
        </g>
        <g id="Grupo_163" data-name="Grupo 163" transform="translate(0 7.693)">
          <g id="Grupo_162" data-name="Grupo 162">
            <path id="Caminho_42" data-name="Caminho 42" d="M2331.189,1704.089a30.016,30.016,0,0,0,10.734-1.962c8.213-3.131,14.8-9.746,19.031-19.133,4.982-11.054,6.572-25.445,4.6-41.618a147.36,147.36,0,0,0-8.8-34.353c-10.629-27.911-35.857-48.85-55.148-61.5a1.4,1.4,0,0,0-1.116-.189,140.994,140.994,0,0,0-30.423,11.587,1.441,1.441,0,0,0-.712.885c-5.985,22.279-10.89,54.693-.255,82.609a158.082,158.082,0,0,0,15.385,30.619,96.939,96.939,0,0,0,18.352,21.163C2312.222,1700.044,2321.988,1704.089,2331.189,1704.089Zm-30.605-155.87c18.872,12.454,43.272,32.847,53.539,59.808a144.416,144.416,0,0,1,8.63,33.69c1.915,15.663.4,29.534-4.365,40.118-3.92,8.692-9.961,14.8-17.466,17.656a27.148,27.148,0,0,1-9.721,1.772c-8.546,0-17.7-3.821-26.555-11.232-13.084-10.941-24.462-28.446-32.913-50.625-10.271-26.958-5.623-58.42.187-80.274a136.612,136.612,0,0,1,14.024-6.255A135.116,135.116,0,0,1,2300.584,1548.219Z" transform="translate(-2262.851 -1545.29)" fill="#112770"/>
          </g>
        </g>
        <g id="Grupo_165" data-name="Grupo 165" transform="translate(7.771 1.409)">
          <g id="Grupo_164" data-name="Grupo 164">
            <path id="Caminho_43" data-name="Caminho 43" d="M2667.777,1525.81a107.753,107.753,0,0,1,30.533-11.63c-3.724-2.451-7.19-4.564-10.224-6.324a11.639,11.639,0,0,0-16.891,6.43C2670.1,1517.622,2668.924,1521.5,2667.777,1525.81Z" transform="translate(-2667.777 -1506.28)" fill="none"/>
          </g>
        </g>
        <g id="Grupo_167" data-name="Grupo 167" transform="translate(50.882 144.268)">
          <g id="Grupo_166" data-name="Grupo 166">
            <path id="Caminho_44" data-name="Caminho 44" d="M2259.222,2423.911l44.073-16.788a4.038,4.038,0,0,0,2.336-5.215l-2.327-6.111a4.042,4.042,0,0,0-5.212-2.337l-44.073,16.786a4.047,4.047,0,0,0-2.344,5.214l2.337,6.113A4.037,4.037,0,0,0,2259.222,2423.911Z" transform="translate(-2251.41 -2393.196)" fill="#9f9eaa"/>
          </g>
        </g>
        <g id="Grupo_169" data-name="Grupo 169" transform="translate(49.328 142.711)">
          <g id="Grupo_168" data-name="Grupo 168">
            <path id="Caminho_45" data-name="Caminho 45" d="M2249.377,2417.628a4.922,4.922,0,0,0,1.759-.331l45.019-17.146a4.953,4.953,0,0,0,2.859-6.381l-2.688-7.06a4.937,4.937,0,0,0-6.382-2.855L2244.929,2401a4.941,4.941,0,0,0-2.863,6.38l2.692,7.056a4.906,4.906,0,0,0,2.595,2.759A5.018,5.018,0,0,0,2249.377,2417.628Zm42.327-31.278a2.139,2.139,0,0,1,1.989,1.364l2.69,7.063a2.132,2.132,0,0,1-1.233,2.741l-45.021,17.144a2.117,2.117,0,0,1-2.741-1.225l-2.688-7.061a2.111,2.111,0,0,1,.046-1.625,2.09,2.09,0,0,1,1.186-1.113l45.019-17.149A2.048,2.048,0,0,1,2291.7,2386.349Z" transform="translate(-2241.741 -2383.526)" fill="#112770"/>
          </g>
        </g>
        <g id="Grupo_171" data-name="Grupo 171" transform="translate(21.269 39.984)" opacity="0.3">
          <g id="Grupo_170" data-name="Grupo 170">
            <path id="Caminho_46" data-name="Caminho 46" d="M2297.471,1852.575c-9.3-1.435-22.9-14.082-22.9-14.082l.229.8c9.34,13.469,19.983,22.823,30.533,27.532l42.588-16.225c.185-.405.368-.816.539-1.235a66.087,66.087,0,0,0,4.636-22.011l-3.148-6.11-38.857-75.477-33.1,10.981-5.62,20.907s20.928,44.122,20.928,55.324S2302.49,1849.771,2297.471,1852.575Z" transform="translate(-2272.375 -1745.767)" fill="#112770"/>
          </g>
        </g>
        <g id="Grupo_173" data-name="Grupo 173" transform="translate(7.771 1.409)">
          <g id="Grupo_172" data-name="Grupo 172">
            <path id="Caminho_47" data-name="Caminho 47" d="M2667.777,1525.81a107.753,107.753,0,0,1,30.533-11.63c-3.724-2.451-7.19-4.564-10.224-6.324a11.639,11.639,0,0,0-16.891,6.43C2670.1,1517.622,2668.924,1521.5,2667.777,1525.81Z" transform="translate(-2667.777 -1506.28)" fill="none"/>
          </g>
        </g>
        <g id="Grupo_174" data-name="Grupo 174" transform="translate(9.751 76.204)">
          <path id="Caminho_48" data-name="Caminho 48" d="M2305.284,2006.909a1.411,1.411,0,0,0,1.13-.567c6.965-9.3,21.39-18.751,38.577-25.3,16.453-6.265,33.052-8.884,44.414-7a1.41,1.41,0,0,0,.454-2.782c-11.825-1.959-28.972.713-45.872,7.148-17.665,6.727-32.55,16.54-39.825,26.241a1.409,1.409,0,0,0,1.122,2.258Z" transform="translate(-2303.876 -1970.631)" fill="#112770"/>
        </g>
        <g id="Grupo_176" data-name="Grupo 176" transform="translate(50.418 143.804)" opacity="0.3">
          <g id="Grupo_175" data-name="Grupo 175">
            <path id="Caminho_49" data-name="Caminho 49" d="M2248.684,2411.544l.632,1.66a.2.2,0,0,1,.044-.019l46.008-17.526a2.414,2.414,0,0,1,3.112,1.4l2.853,7.479,1.033-.4a2.442,2.442,0,0,0,1.416-3.145l-3.474-9.114a2.439,2.439,0,0,0-3.144-1.408l-47.073,17.93A2.443,2.443,0,0,0,2248.684,2411.544Z" transform="translate(-2248.525 -2390.312)" fill="#112770"/>
          </g>
        </g>
      </g>
      <g id="Grupo_183" data-name="Grupo 183" transform="translate(173.19 162.358)">
        <g id="Grupo_178" data-name="Grupo 178" transform="translate(1.408 65.81)">
          <path id="Caminho_50" data-name="Caminho 50" d="M1746.4,2084.309c5.615,0,10.133-1.458,13.506-4.363,6.573-5.657,5.99-14.557,5.964-14.933l-2.813.209-2.807.2c0,.062.367,6.511-4.056,10.285-3.715,3.172-9.853,3.811-18.25,1.91l-1.249,5.492A43.973,43.973,0,0,0,1746.4,2084.309Z" transform="translate(-1736.695 -2065.013)" fill="#eeedee"/>
        </g>
        <g id="Grupo_179" data-name="Grupo 179" transform="translate(1.408 65.81)" opacity="0.3">
          <path id="Caminho_51" data-name="Caminho 51" d="M1746.4,2084.309c5.615,0,10.133-1.458,13.506-4.363,6.573-5.657,5.99-14.557,5.964-14.933l-2.813.209-2.807.2c0,.062.367,6.511-4.056,10.285-3.715,3.172-9.853,3.811-18.25,1.91l-1.249,5.492A43.973,43.973,0,0,0,1746.4,2084.309Z" transform="translate(-1736.695 -2065.013)" fill="#112770"/>
        </g>
        <g id="Grupo_180" data-name="Grupo 180" transform="translate(0 64.4)">
          <path id="Caminho_52" data-name="Caminho 52" d="M1739.078,2078.378c5.945,0,10.8-1.584,14.422-4.7,7.1-6.123,6.477-15.7,6.448-16.106a1.407,1.407,0,0,0-1.513-1.3l-2.808.208-2.8.2a1.406,1.406,0,0,0-1.309,1.49c0,.052.281,5.853-3.562,9.132-3.356,2.861-9.087,3.4-17.026,1.6a1.4,1.4,0,0,0-1.684,1.061l-1.246,5.5a1.4,1.4,0,0,0,1.064,1.685,45.624,45.624,0,0,0,10.015,1.236h0Zm18.071-19.191c-.1,2.638-.87,8.377-5.489,12.352-3.1,2.67-7.331,4.018-12.582,4.018h0a40.949,40.949,0,0,1-8.016-.869l.622-2.745c8.159,1.629,14.243.785,18.1-2.506,3.674-3.126,4.41-7.74,4.537-10.045Z" transform="translate(-1727.962 -2056.265)" fill="#112770"/>
        </g>
        <g id="Grupo_181" data-name="Grupo 181" transform="translate(13.889 1.062)">
          <rect id="Ret창ngulo_5339" data-name="Ret창ngulo 5339" width="13.808" height="65.098" rx="6.904" transform="translate(20.656 64.729) rotate(173.892)" fill="#fe3601"/>
        </g>
        <g id="Grupo_182" data-name="Grupo 182" transform="translate(12.825)">
          <path id="Caminho_53" data-name="Caminho 53" d="M1716.68,1724.769a4.59,4.59,0,0,0,.527-.03h0l6.875-.733a4.864,4.864,0,0,0,4.312-5.347l-6.2-57.876a4.859,4.859,0,0,0-5.342-4.309l-6.879.735a4.865,4.865,0,0,0-4.31,5.346l6.194,57.875a4.852,4.852,0,0,0,4.817,4.339Zm.7-65.506a2.033,2.033,0,0,1,2.017,1.821l6.2,57.878a2.045,2.045,0,0,1-1.808,2.242l-6.878.736h0a2.035,2.035,0,0,1-2.24-1.808l-6.193-57.879a2.037,2.037,0,0,1,1.806-2.241l6.879-.736C1717.23,1659.268,1717.3,1659.262,1717.379,1659.262Z" transform="translate(-1705.641 -1656.446)" fill="#112770"/>
        </g>
      </g>
      <g id="Grupo_189" data-name="Grupo 189" transform="translate(0 170.017)">
        <g id="Grupo_184" data-name="Grupo 184" transform="translate(1.41 33.147)">
          <path id="Caminho_54" data-name="Caminho 54" d="M2841.028,1962.744a96.7,96.7,0,0,1-9.344-3.4,47.838,47.838,0,0,1-13.532-8.224c-4.427-4.079-6.547-8.63-6.319-13.528a33.4,33.4,0,0,1,8.84-21.1,36.252,36.252,0,0,1,6.679-5.755c.915-.6,1.49-.912,1.552-.945l2.647,4.976a25.594,25.594,0,0,0-3.929,2.822,32.726,32.726,0,0,0-2.925,2.851,27.431,27.431,0,0,0-7.228,17.42c-.363,7.481,8.7,12.977,16.362,16.273,1.26.54,2.536,1.042,3.786,1.5" transform="translate(-2811.816 -1909.789)" fill="#fff"/>
        </g>
        <g id="Grupo_185" data-name="Grupo 185" transform="translate(1.41 33.147)" opacity="0.3">
          <path id="Caminho_55" data-name="Caminho 55" d="M2841.028,1962.744a96.7,96.7,0,0,1-9.344-3.4,47.838,47.838,0,0,1-13.532-8.224c-4.427-4.079-6.547-8.63-6.319-13.528a33.4,33.4,0,0,1,8.84-21.1,36.252,36.252,0,0,1,6.679-5.755c.915-.6,1.49-.912,1.552-.945l2.647,4.976a25.594,25.594,0,0,0-3.929,2.822,32.726,32.726,0,0,0-2.925,2.851,27.431,27.431,0,0,0-7.228,17.42c-.363,7.481,8.7,12.977,16.362,16.273,1.26.54,2.536,1.042,3.786,1.5" transform="translate(-2811.816 -1909.789)" fill="#112770"/>
        </g>
        <g id="Grupo_186" data-name="Grupo 186" transform="translate(0 31.738)">
          <path id="Caminho_56" data-name="Caminho 56" d="M2833.688,1956.814a1.411,1.411,0,0,0,1.273-2.021l-3.416-7.1a1.431,1.431,0,0,0-.78-.712c-1.287-.475-2.541-.976-3.72-1.48a42.838,42.838,0,0,1-10.833-6.341c-3.243-2.781-4.822-5.663-4.68-8.568a26.024,26.024,0,0,1,6.873-16.545,29.894,29.894,0,0,1,2.791-2.72,24.707,24.707,0,0,1,3.683-2.658,1.415,1.415,0,0,0,.686-.829,1.384,1.384,0,0,0-.115-1.072l-2.645-4.971a1.414,1.414,0,0,0-1.905-.586c-.162.089-.765.418-1.664,1.016a37.557,37.557,0,0,0-6.946,5.981,34.78,34.78,0,0,0-9.2,21.98c-.255,5.335,2.024,10.256,6.768,14.632a49.171,49.171,0,0,0,13.936,8.483,96.846,96.846,0,0,0,9.479,3.449A1.347,1.347,0,0,0,2833.688,1956.814Zm-4.44-7.393,1.741,3.623c-2.14-.737-4.176-1.519-6.09-2.336a46.344,46.344,0,0,1-13.13-7.963c-4.105-3.787-6.079-7.966-5.867-12.424a31.99,31.99,0,0,1,8.473-20.221,34.672,34.672,0,0,1,6.417-5.531c.081-.05.155-.1.226-.147l1.33,2.5a31.127,31.127,0,0,0-2.979,2.254,32.6,32.6,0,0,0-3.056,2.981,28.807,28.807,0,0,0-7.592,18.295c-.185,3.821,1.719,7.468,5.662,10.844a45.516,45.516,0,0,0,11.551,6.789C2826.991,1948.54,2828.1,1948.988,2829.248,1949.421Z" transform="translate(-2803.068 -1901.042)" fill="#112770"/>
        </g>
        <g id="Grupo_187" data-name="Grupo 187" transform="translate(15.531 0.207)">
          <rect id="Ret창ngulo_5340" data-name="Ret창ngulo 5340" width="13.808" height="65.098" rx="6.904" transform="translate(6.395 42.389) rotate(-117.591)" fill="#fe3601"/>
        </g>
        <g id="Grupo_188" data-name="Grupo 188" transform="translate(15.321)">
          <path id="Caminho_57" data-name="Caminho 57" d="M2514.407,1746.8a4.829,4.829,0,0,0,2.241-.556l51.588-26.957a4.859,4.859,0,0,0,2.053-6.551l-3.206-6.13a4.848,4.848,0,0,0-6.549-2.054l-51.586,26.958a4.857,4.857,0,0,0-2.054,6.55l3.2,6.13a4.876,4.876,0,0,0,4.311,2.61Zm48.375-39.986a2.087,2.087,0,0,1,.614.1,2.029,2.029,0,0,1,1.2,1l3.2,6.132a2.042,2.042,0,0,1-.86,2.747l-51.586,26.96a2.042,2.042,0,0,1-2.754-.864l-3.2-6.131h0a2.03,2.03,0,0,1,.863-2.748l51.586-26.958A2.044,2.044,0,0,1,2562.782,1706.818Z" transform="translate(-2506.339 -1704)" fill="#112770"/>
        </g>
      </g>
      <g id="Grupo_226" data-name="Grupo 226" transform="translate(19.647 142.884)">
        <g id="Grupo_191" data-name="Grupo 191" transform="translate(55.854 108.922)" opacity="0.5">
          <g id="Grupo_190" data-name="Grupo 190" transform="translate(0)">
            <path id="Caminho_58" data-name="Caminho 58" d="M2394.285,2246.348q.78,2.057,1.622,4c-3.809-12.145-3.585-26.507-3.338-31.87a.965.965,0,0,1,1.655-.627c3.753,3.834,13.475,14.41,18.716,26.008-.449-1.335-.929-2.691-1.451-4.06-4.33-11.375-13.665-22.21-18.439-27.29a1.739,1.739,0,0,0-3.156,1.2C2389.705,2220.676,2389.952,2234.975,2394.285,2246.348Z" transform="translate(-2389.851 -2211.77)" fill="#fff"/>
          </g>
        </g>
        <g id="Grupo_192" data-name="Grupo 192" transform="translate(95.855 97.174)">
          <path id="Caminho_59" data-name="Caminho 59" d="M2268.758,2141.656a1.5,1.5,0,0,0,.388-.052h0a1.411,1.411,0,0,0-.773-2.713,1.41,1.41,0,0,0,.385,2.766Z" transform="translate(-2267.35 -2138.837)" fill="#112770"/>
        </g>
        <g id="Grupo_193" data-name="Grupo 193" transform="translate(165.288 63.135)" opacity="0.3">
          <path id="Caminho_60" data-name="Caminho 60" d="M1850.251,1927.511c.186.34.376.672.57,1C1850.638,1928.169,1850.45,1927.834,1850.251,1927.511Z" transform="translate(-1850.251 -1927.511)" fill="#112770"/>
        </g>
        <g id="Grupo_200" data-name="Grupo 200" transform="translate(114.832 27.732)">
          <g id="Grupo_194" data-name="Grupo 194" transform="translate(1.416 1.415)">
            <path id="Caminho_61" data-name="Caminho 61" d="M1787.174,1723.175s-23.776,2.082-44.07-5.865,19.16,45.2,19.16,45.2,27.523,3.431,39.687-4.292S1787.174,1723.175,1787.174,1723.175Z" transform="translate(-1737.302 -1716.502)" fill="#fff"/>
          </g>
          <g id="Grupo_195" data-name="Grupo 195" transform="translate(1.418 1.415)" opacity="0.3">
            <path id="Caminho_62" data-name="Caminho 62" d="M1762.266,1762.518s27.523,3.432,39.688-4.284c5.7-3.619,2.81-11.542-1.863-18.94-.125.09-.257.177-.392.263-12.163,7.721-39.689,4.29-39.689,4.29s-10.587-14.268-17.972-26.911C1724.265,1711.322,1762.266,1762.518,1762.266,1762.518Z" transform="translate(-1737.305 -1716.505)" fill="#112770"/>
          </g>
          <g id="Grupo_196" data-name="Grupo 196" transform="translate(0)">
            <path id="Caminho_63" data-name="Caminho 63" d="M1768.737,1757.315c.493,0,.992,0,1.5-.01,11.412-.145,19.871-1.916,25.14-5.256a7.826,7.826,0,0,0,3.744-5.973c.55-4.819-2.395-11.573-8.751-20.083a119.4,119.4,0,0,0-9.523-11.176,1.4,1.4,0,0,0-1.126-.413h0a112.085,112.085,0,0,1-14.272.04c-7.622-.427-18.865-1.782-29.158-5.812-1.258-.493-5.088-1.992-6.938.426-1.454,1.9-.926,5.317,1.712,11.064a137.878,137.878,0,0,0,8.718,15.433c6.643,10.475,13.948,20.334,14.023,20.432a1.409,1.409,0,0,0,.958.558A123.668,123.668,0,0,0,1768.737,1757.315Zm10.552-40.053a120.2,120.2,0,0,1,8.845,10.445c5.813,7.791,8.646,14.033,8.19,18.051a5.068,5.068,0,0,1-2.456,3.911c-10.628,6.748-34.12,4.581-38.16,4.144-1.549-2.111-7.805-10.717-13.553-19.78a135.258,135.258,0,0,1-8.529-15.093c-2.957-6.438-2.215-7.937-2.03-8.172.206-.271,1.214-.474,3.668.485,10.658,4.176,22.239,5.573,30.077,6.008A118.537,118.537,0,0,0,1779.288,1717.261Z" transform="translate(-1728.559 -1707.718)" fill="#112770"/>
          </g>
          <g id="Grupo_197" data-name="Grupo 197" transform="translate(43.113 4.038)">
            <path id="Caminho_64" data-name="Caminho 64" d="M1697,1760.363c.7-7.62.4-25.559-16.271-27.248-19.133-1.942-21.634,5.07-22.27,10.776s2.617,14.162,6.419,19.02,4.65,15.006,13.95,17.119S1695.725,1774.264,1697,1760.363Z" transform="translate(-1658.379 -1732.785)" fill="#fff"/>
          </g>
          <g id="Grupo_198" data-name="Grupo 198" transform="translate(51.033 22.953)" opacity="0.3">
            <path id="Caminho_65" data-name="Caminho 65" d="M1658.38,1863.685c2.773,5.231,4.5,13.042,12.527,14.866,9.3,2.113,16.9-5.771,18.177-19.664a45.251,45.251,0,0,0-.026-8.669c-.038.585-.082,1.136-.135,1.638-1.427,13.9-9.905,21.783-20.278,19.667C1663.3,1870.432,1660.461,1867.215,1658.38,1863.685Z" transform="translate(-1658.38 -1850.218)" fill="#112770"/>
          </g>
          <g id="Grupo_199" data-name="Grupo 199" transform="translate(41.702 2.633)">
            <path id="Caminho_66" data-name="Caminho 66" d="M1674.456,1774.467a13.293,13.293,0,0,0,7.9-2.6c4.84-3.513,7.939-10.151,8.725-18.687h0c.326-3.532.535-10.365-1.7-16.462a19.252,19.252,0,0,0-5.38-8.085,18.49,18.49,0,0,0-10.454-4.234c-19.7-2-23.075,5.376-23.813,12.025-.7,6.286,2.863,15.129,6.714,20.046a26.563,26.563,0,0,1,2.813,5.279c2.137,4.776,4.8,10.722,11.93,12.344A14.8,14.8,0,0,0,1674.456,1774.467Zm-7.044-47.585q2.684,0,5.848.317c6.634.677,11.168,4.2,13.474,10.486,2.046,5.581,1.841,11.942,1.538,15.234h0c-.7,7.6-3.458,13.678-7.572,16.665a10.684,10.684,0,0,1-8.886,1.757c-5.764-1.31-7.907-6.109-9.981-10.746a28.288,28.288,0,0,0-3.17-5.866c-3.421-4.374-6.74-12.5-6.128-18,.277-2.51.926-5.336,3.619-7.27C1658.548,1727.745,1662.323,1726.882,1667.412,1726.882Z" transform="translate(-1649.645 -1724.064)" fill="#112770"/>
          </g>
        </g>
        <g id="Grupo_201" data-name="Grupo 201" transform="translate(1.409 1.409)">
          <path id="Caminho_67" data-name="Caminho 67" d="M1524.547,1609.131a12.733,12.733,0,0,0,9.059,4.573,22.675,22.675,0,0,0,8.877-1.256l.008,0c.257-.085.512-.174.77-.267q.582-.2,1.165-.441c.028.081.056.163.081.245,2.354,7.087,6.509,17.688,12.59,26.465,10.144,14.653,9.019,62.84,46.776,55.794,5.526,30.7,21.319,40.389,21.811,40.686l.011,0c4.682,3.4,11.115,5.02,19.074,2.459a34.446,34.446,0,0,0,5.414-2.295,50.313,50.313,0,0,0,7.64-4.987c2.289-1.785,4.349-3.523,6.208-5.215,1.318,9.767-2.08,12.44,7.757,24.854,11.836,14.934,29.327,19.515,52.152,17.263,7.151-.7,11.564-4.662,13.457-9.884,3.409-9.39-1.323-22.883-12.915-28.968-6.824-3.582-9.42-13.592-10.407-21.24q-.589-4.577-1.467-9.11a134.508,134.508,0,0,0-7.87-26.183,198.184,198.184,0,0,0-28.245-47.785c-1.464-1.812-2.767-3.332-3.839-4.553-2.137-2.42-3.4-3.665-3.4-3.665l-27.088-46.676-14.3-24.647-73.022,1.721s-16.805,19.835-26.044,32.819a61.561,61.561,0,0,0-5.362,8.522.482.482,0,0,0-.028.064c-.075.174-.152.352-.223.527C1519.918,1595.829,1520.253,1603.961,1524.547,1609.131Z" transform="translate(-1520.995 -1544.297)" fill="#fff"/>
        </g>
        <g id="Grupo_202" data-name="Grupo 202">
          <path id="Caminho_68" data-name="Caminho 68" d="M1706.1,1761.628q5.034,0,10.615-.55a17.483,17.483,0,0,0,10.558-4.506,16.811,16.811,0,0,0,4.865-9.129,24.784,24.784,0,0,0-2.308-15.41,27.637,27.637,0,0,0-12.053-12.463c-6.27-3.286-8.718-12.78-9.667-20.169-.4-3.1-.9-6.2-1.482-9.2a136.268,136.268,0,0,0-7.954-26.458A204.2,204.2,0,0,0,1675.149,1622a134.738,134.738,0,0,0-12.134-14.58l-41.292-71.166a1.414,1.414,0,0,0-1.251-.7l-73.022,1.72a1.409,1.409,0,0,0-1.042.5c-.169.2-16.953,20.027-26.119,32.912a60.77,60.77,0,0,0-5.5,8.755.753.753,0,0,0-.049.114c-.075.17-.149.346-.222.521a28.054,28.054,0,0,0-2.258,12.228,17.672,17.672,0,0,0,3.842,10.391h0a13.968,13.968,0,0,0,9.562,5.033,24.013,24.013,0,0,0,10.529-1.492c2.5,7.331,6.578,17.3,12.382,25.68,2.68,3.871,4.636,10.543,6.709,17.6,2.819,9.616,6.018,20.518,12.033,28.422a27.091,27.091,0,0,0,11.713,9.208,31.131,31.131,0,0,0,16.35,1.38c5.74,29.643,21.03,39.541,22.171,40.242a21.029,21.029,0,0,0,14.3,3.862c6.162-.532,12.714-3.477,19.478-8.749,1.462-1.139,2.871-2.293,4.209-3.445.084,1.3.1,2.481.109,3.638.06,5.4.109,9.661,7.674,19.208a45.347,45.347,0,0,0,22.637,15.547A66.935,66.935,0,0,0,1706.1,1761.628Zm-86.4-223.239,40.968,70.6a1.373,1.373,0,0,0,.231.3,131.345,131.345,0,0,1,12.021,14.436,201.281,201.281,0,0,1,23.153,41.1,133.182,133.182,0,0,1,7.786,25.911c.575,2.941,1.062,5.974,1.453,9.021,1.035,8.046,3.811,18.456,11.153,22.307,10.456,5.493,14.456,16.9,12.906,24.835-1.276,6.541-5.99,10.686-12.935,11.37-23.822,2.35-40-2.97-50.911-16.738-6.967-8.793-7-12.254-7.062-17.495a51.319,51.319,0,0,0-.4-6.673,1.408,1.408,0,0,0-2.346-.85c-1.88,1.709-3.942,3.442-6.122,5.144-15.531,12.111-25.733,8.2-30.437,4.792a.2.2,0,0,1-.036-.025c-.025-.015-.061-.039-.088-.053-.152-.09-4.048-2.468-8.6-8.568-4.166-5.579-9.719-15.513-12.535-31.15a1.4,1.4,0,0,0-1.646-1.133c-11.562,2.155-20.295-.881-26.691-9.291-5.7-7.488-8.82-18.123-11.574-27.507-2.227-7.606-4.155-14.171-7.095-18.417-5.986-8.645-10.1-19.1-12.488-26.349a1.413,1.413,0,0,0-1.862-.866,24.9,24.9,0,0,1-8.908,1.916,11.633,11.633,0,0,1-9.364-4.116h0c-3.838-4.62-4.278-12.183-1.145-19.74.07-.17.142-.34.216-.508a.13.13,0,0,1,.01-.023v0a59.422,59.422,0,0,1,5.232-8.3c8.3-11.67,22.939-29.128,25.564-32.242Zm-102.331,42.167a.1.1,0,0,1-.007.021Z" transform="translate(-1512.225 -1535.55)" fill="#112770"/>
        </g>
        <g id="Grupo_203" data-name="Grupo 203" transform="translate(1.406 1.409)" opacity="0.3">
          <path id="Caminho_69" data-name="Caminho 69" d="M2146.093,1609.131a12.711,12.711,0,0,0,9.055,4.573l9.023-1.424,15.175-9.016c-2.937-11.851-4.664-35.794,31.756-30.179,23.629,3.645,39.136,1.037,48.807-2.553a95.908,95.908,0,0,0-10.059-10.427l5.269-5.957-5.714-9.849-73.025,1.721s-16.8,19.835-26.04,32.819a61.642,61.642,0,0,0-5.363,8.522c-.007.023-.022.042-.027.064-.076.174-.148.352-.226.527C2141.458,1595.829,2141.793,1603.961,2146.093,1609.131Z" transform="translate(-2142.535 -1544.297)" fill="#112770"/>
        </g>
        <g id="Grupo_204" data-name="Grupo 204" transform="translate(22.765 60.151)" opacity="0.3">
          <path id="Caminho_70" data-name="Caminho 70" d="M1872.759,1918.389c.642-.208,1.287-.447,1.938-.707,2.342,7.09,6.522,17.833,12.671,26.709,10.142,14.656,9.017,62.842,46.775,55.8,5.526,30.7,21.317,40.39,21.81,40.685l.012.007c.219.157.44.308.665.465,10.338,6.912,22.719,1.528,31.462-5.289,19.611-15.3,22.51-27.233,23.817-33.075,1.493-6.652-2.242-13.5-12.107-13.216s-31.586,18.6-31.586,18.6c-.1.08-.189.162-.283.248a17.437,17.437,0,0,1-28.583-9.588c-1.331-6.462-1.915-11.339-1.915-11.339-9.962,1.58-10.618-2.99-20.765-15.674s-16.344-44.244-21.372-48.017-6.706-15.006-6.706-15.006Z" transform="translate(-1872.759 -1908.984)" fill="#112770"/>
        </g>
        <g id="Grupo_205" data-name="Grupo 205" transform="translate(2.439 34.541)">
          <path id="Caminho_71" data-name="Caminho 71" d="M2815.432,1761.332a1.408,1.408,0,0,0,1.28-.822,59.892,59.892,0,0,1,5.23-8.3,1.409,1.409,0,0,0-2.224-1.726,36.031,36.031,0,0,0-5.579,8.869,1.408,1.408,0,0,0,.719,1.852A1.387,1.387,0,0,0,2815.432,1761.332Z" transform="translate(-2814.02 -1749.991)" fill="#112770"/>
        </g>
        <g id="Grupo_206" data-name="Grupo 206" transform="translate(66.294 82.449)">
          <path id="Caminho_72" data-name="Caminho 72" d="M2022.971,2063.21a76.29,76.29,0,0,1,16.621-9.306c6.581-2.672,13.736-4.3,20.858-3.414a30.326,30.326,0,0,1,7.495,1.926,20.959,20.959,0,0,1,7.516,5.931c4.017,4.826,6.823,10.63,9.191,16.412a164.314,164.314,0,0,1,5.722,16.809c.32,1.122.9,5.372,3.041,3.836.865-.628.518-1.593.3-2.435-.322-1.239-.65-2.476-.993-3.711a142.294,142.294,0,0,0-5.742-16.834c-2.4-5.734-5.294-11.433-9.34-16.19a22.624,22.624,0,0,0-8.493-6.517,32.825,32.825,0,0,0-13.933-2.255c-11.763.541-23.468,6.3-32.133,14.116-.28.253-.916.662-.989,1.077A.559.559,0,0,0,2022.971,2063.21Z" transform="translate(-2022.084 -2047.422)" fill="#112770"/>
        </g>
        <g id="Grupo_207" data-name="Grupo 207" transform="translate(129.706 192.208)" opacity="0.3">
          <path id="Caminho_73" data-name="Caminho 73" d="M2069.146,2729.3c.294-.146.594-.294.895-.457C2069.74,2729,2069.44,2729.15,2069.146,2729.3Z" transform="translate(-2069.146 -2728.84)" fill="#112770"/>
        </g>
        <g id="Grupo_208" data-name="Grupo 208" transform="translate(126.664 193.672)" opacity="0.3">
          <path id="Caminho_74" data-name="Caminho 74" d="M2088.644,2738.241c.267-.1.53-.2.8-.312C2089.173,2738.034,2088.911,2738.143,2088.644,2738.241Z" transform="translate(-2088.644 -2737.929)" fill="#112770"/>
        </g>
        <g id="Grupo_209" data-name="Grupo 209" transform="translate(108.167 193.355)" opacity="0.3">
          <path id="Caminho_75" data-name="Caminho 75" d="M2204.6,2736.342c-.249-.125-.493-.255-.735-.381C2204.106,2736.086,2204.35,2736.216,2204.6,2736.342Z" transform="translate(-2203.864 -2735.961)" fill="#112770"/>
        </g>
        <g id="Grupo_210" data-name="Grupo 210" transform="translate(106.772 192.507)" opacity="0.3">
          <path id="Caminho_76" data-name="Caminho 76" d="M2208.4,2730.694c.45.3.917.58,1.395.847C2209.321,2731.274,2208.854,2730.994,2208.4,2730.694Z" transform="translate(-2208.404 -2730.694)" fill="#112770"/>
        </g>
        <g id="Grupo_211" data-name="Grupo 211" transform="translate(99.514 139.511)">
          <path id="Caminho_77" data-name="Caminho 77" d="M1881.252,2459.336c6.733,0,13.952-2.976,21.474-8.838,8.6-6.716,15.036-13.6,19.116-20.474a42.55,42.55,0,0,0,5.212-13.4,12.239,12.239,0,0,0-2.2-10.564c-1.725-2.09-5.09-4.548-11.322-4.368-4.367.122-11.181,3.372-20.254,9.648-6.641,4.6-12.145,9.233-12.2,9.278l-.018.015c-11.517,10.065-17.538,18.449-17.9,24.909a8.891,8.891,0,0,0,2.315,6.737,21.007,21.007,0,0,0,14.952,7.04C1880.7,2459.33,1880.977,2459.336,1881.252,2459.336Zm32.9-54.84c3.769,0,6.708,1.154,8.524,3.354A9.44,9.44,0,0,1,1924.3,2416c-1.247,5.545-3.837,17.089-23.309,32.267-18.638,14.537-29.6,6.319-33.446,2.106a6.085,6.085,0,0,1-1.583-4.676c.218-3.907,3.336-11.057,16.935-22.94.249-.208,5.584-4.676,12-9.112,8.483-5.876,14.952-9.039,18.71-9.147C1913.789,2404.5,1913.972,2404.5,1914.152,2404.5Z" transform="translate(-1863.135 -2401.679)" fill="#112770"/>
        </g>
        <g id="Grupo_212" data-name="Grupo 212" transform="translate(111.985 127.657)">
          <path id="Caminho_78" data-name="Caminho 78" d="M1916.751,2348.674c-2.21-12.186-13.77-21.161-26.05-20.565-7.832.385-14.943,4.821-20.378,10.223a44.621,44.621,0,0,0-3.88,4.388c-.3.388-1.325,1.389-1.071,1.923.358.74,1.029-.1,1.307-.388a57.791,57.791,0,0,1,8.71-7.313c5.4-3.674,11.725-6.236,18.151-5.691,5.346.76,10.257,2.7,14.106,6.618a25.207,25.207,0,0,1,5.485,8.665c.26.67.5,1.367.7,2.065a3.912,3.912,0,0,0,.354,1.1A1.417,1.417,0,0,0,1916.751,2348.674Z" transform="translate(-1865.332 -2328.082)" fill="#112770"/>
        </g>
        <g id="Grupo_213" data-name="Grupo 213" transform="translate(82.65 113.686)">
          <path id="Caminho_79" data-name="Caminho 79" d="M2050.249,2280.423a1.474,1.474,0,0,0,.251-.02,1.41,1.41,0,0,0,1.141-1.634c-1.084-6,2.3-11.572,5.324-15.194,9.1-10.885,27.331-19.408,41.495-19.408a1.409,1.409,0,1,0,0-2.818c-7.269,0-15.757,2.1-23.887,5.912-8.106,3.8-15.125,8.952-19.767,14.506-4.893,5.851-6.946,11.905-5.942,17.5A1.409,1.409,0,0,0,2050.249,2280.423Z" transform="translate(-2048.616 -2241.35)" fill="#112770"/>
        </g>
        <g id="Grupo_214" data-name="Grupo 214" transform="translate(2.157 43.124)">
          <path id="Caminho_80" data-name="Caminho 80" d="M2848.888,1806.711a1.4,1.4,0,0,0,1.319-.922l.023-.053v-.018c.063-.14.121-.285.191-.436a1.41,1.41,0,1,0-2.561-1.183c-.093.206-.18.407-.262.608a1.1,1.1,0,0,1-.037.106,1.414,1.414,0,0,0,1.326,1.9Z" transform="translate(-2847.476 -1803.279)" fill="#112770"/>
        </g>
        <g id="Grupo_215" data-name="Grupo 215" transform="translate(158.964 153.511)">
          <path id="Caminho_81" data-name="Caminho 81" d="M1683.068,2497.271a51.641,51.641,0,0,0,24.517-6.029,1.408,1.408,0,1,0-1.332-2.481,50.085,50.085,0,0,1-31.764,5.016,1.412,1.412,0,0,0-.434,2.791A58.8,58.8,0,0,0,1683.068,2497.271Z" transform="translate(-1672.861 -2488.593)" fill="#112770"/>
        </g>
        <g id="Grupo_216" data-name="Grupo 216" transform="translate(133.181 146.172)">
          <path id="Caminho_82" data-name="Caminho 82" d="M1904.571,2459.284a1.408,1.408,0,0,0,.452-2.743c-6.226-2.108-17.751-6.613-24.932-13.142a1.409,1.409,0,1,0-1.9,2.081c7.566,6.873,19.494,11.553,25.928,13.726A1.294,1.294,0,0,0,1904.571,2459.284Z" transform="translate(-1877.734 -2443.029)" fill="#112770"/>
        </g>
        <g id="Grupo_217" data-name="Grupo 217" transform="translate(122.676 153.567)">
          <path id="Caminho_83" data-name="Caminho 83" d="M1946.869,2508.531a1.408,1.408,0,0,0,.43-2.75c-6.366-2.042-21.953-7.72-29.184-16.332a1.409,1.409,0,1,0-2.158,1.812c7.428,8.847,22.283,14.58,30.481,17.2A1.294,1.294,0,0,0,1946.869,2508.531Z" transform="translate(-1915.627 -2488.945)" fill="#112770"/>
        </g>
        <g id="Grupo_218" data-name="Grupo 218" transform="translate(113.208 161.514)">
          <path id="Caminho_84" data-name="Caminho 84" d="M2003.018,2559.716a1.413,1.413,0,0,0,.444-2.752c-6.884-2.289-23.546-8.619-29.6-18.041a1.409,1.409,0,0,0-2.37,1.524c6.3,9.813,22.179,16.237,31.083,19.194A1.492,1.492,0,0,0,2003.018,2559.716Z" transform="translate(-1971.269 -2538.277)" fill="#112770"/>
        </g>
        <g id="Grupo_219" data-name="Grupo 219" transform="translate(104.778 170.68)">
          <path id="Caminho_85" data-name="Caminho 85" d="M2070.5,2616.388a1.409,1.409,0,0,0,.487-2.731c-7.893-2.9-21.85-9.064-26.685-17.75a1.411,1.411,0,0,0-2.465,1.374c5.016,9.012,18.089,15.317,28.175,19.023A1.456,1.456,0,0,0,2070.5,2616.388Z" transform="translate(-2041.659 -2595.188)" fill="#112770"/>
        </g>
        <g id="Grupo_220" data-name="Grupo 220" transform="translate(144.443 167.636)" opacity="0.3">
          <path id="Caminho_86" data-name="Caminho 86" d="M1527.71,2590.66c1.322,9.765-2.074,12.444,7.76,24.853,11.834,14.932,29.328,19.518,52.154,17.261,7.149-.706,11.563-4.66,13.454-9.881-64.584,2.439-61.1-25.686-61.1-25.686v-20.922A66.259,66.259,0,0,1,1527.71,2590.66Z" transform="translate(-1527.71 -2576.286)" fill="#112770"/>
        </g>
        <g id="Grupo_221" data-name="Grupo 221" transform="translate(110.154 76.397)" opacity="0.3">
          <path id="Caminho_87" data-name="Caminho 87" d="M1905.815,2018.03c9.515,3.1,15.554,10.7,26.651,43.359.138.416.269.839.395,1.265a21.391,21.391,0,0,1,3.15.085,25.008,25.008,0,0,1,10.855,3.612,228.125,228.125,0,0,0-9.43-23.431,18.967,18.967,0,0,1,9.356-25.248,32.3,32.3,0,0,0,5.776-3.27c-1.463-1.812-2.763-3.332-3.841-4.553Z" transform="translate(-1905.815 -2009.85)" fill="#112770"/>
        </g>
        <g id="Grupo_225" data-name="Grupo 225" transform="translate(0.004 21.873)">
          <g id="Grupo_222" data-name="Grupo 222" transform="translate(1.405 1.409)">
            <path id="Caminho_88" data-name="Caminho 88" d="M2557.5,1723.051c6.967,8.378,20.8,4.7,33.123-5.537s18.47-23.168,11.508-31.547-23.5-7.953-35.818,2.286S2550.547,1714.671,2557.5,1723.051Z" transform="translate(-2553.955 -1680.092)" fill="#fff"/>
          </g>
          <g id="Grupo_223" data-name="Grupo 223" transform="translate(1.449 7.488)" opacity="0.3">
            <path id="Caminho_89" data-name="Caminho 89" d="M2553.955,1745.3a16.154,16.154,0,0,0,3.51,9.415c6.96,8.38,20.8,4.7,33.116-5.539,12.227-10.158,18.375-22.958,11.674-31.342-.214,7.313-5.81,15.777-14.422,22.935-12.322,10.241-26.154,13.914-33.116,5.538C2554.448,1745.984,2554.192,1745.646,2553.955,1745.3Z" transform="translate(-2553.955 -1717.836)" fill="#112770"/>
          </g>
          <g id="Grupo_224" data-name="Grupo 224">
            <path id="Caminho_90" data-name="Caminho 90" d="M2560.547,1721.761a22.843,22.843,0,0,0,4.384-.449c6-1.179,12.816-4.744,19.2-10.051s11.143-11.353,13.4-17.035c2.531-6.393,1.947-12.1-1.709-16.494s-9.876-6.719-17.055-6.347a37.12,37.12,0,0,0-32.858,27.3c-1.677,6.99-.543,13.527,3.119,17.93h0A14.341,14.341,0,0,0,2560.547,1721.761Zm19.717-47.6c5.7,0,10.529,1.921,13.39,5.367,6.844,8.235-.758,20.782-11.328,29.565s-24.289,13.952-31.131,5.718h0c-3.09-3.714-4.012-9.351-2.542-15.471a34.289,34.289,0,0,1,30.257-25.143C2579.364,1674.176,2579.819,1674.165,2580.264,1674.165Zm-30.154,41.553Z" transform="translate(-2545.15 -1671.345)" fill="#112770"/>
          </g>
        </g>
      </g>
      <g id="Grupo_243" data-name="Grupo 243" transform="translate(48.201 150.248)">
        <g id="Grupo_227" data-name="Grupo 227" transform="translate(80.171 1.409)">
          <path id="Caminho_91" data-name="Caminho 91" d="M2050.5,1619.911l9.726-5.7a110.376,110.376,0,0,0-20.321-24.2l-7.467,8.446A100.426,100.426,0,0,1,2050.5,1619.911Z" transform="translate(-2032.435 -1590.011)" fill="#fff"/>
        </g>
        <g id="Grupo_228" data-name="Grupo 228" transform="translate(39.771 3.904)">
          <path id="Caminho_92" data-name="Caminho 92" d="M2271.1,1640.056l-.006-.018,10.462-4.185a66,66,0,0,0-28.006-30.349l-5.438,9.872a55.4,55.4,0,0,1,17.667,15.678A47.365,47.365,0,0,1,2271.1,1640.056Z" transform="translate(-2248.117 -1605.503)" fill="#fff"/>
        </g>
        <g id="Grupo_229" data-name="Grupo 229" transform="translate(78.762)">
          <path id="Caminho_93" data-name="Caminho 93" d="M2043.162,1613.98a1.414,1.414,0,0,0,.708-.194l9.727-5.7a1.407,1.407,0,0,0,.5-1.927,111.836,111.836,0,0,0-20.6-24.545,1.411,1.411,0,0,0-1.991.122l-7.468,8.442a1.414,1.414,0,0,0,.121,1.989,99.754,99.754,0,0,1,17.786,21.114A1.405,1.405,0,0,0,2043.162,1613.98Zm7.772-7.6-7.3,4.276a104.578,104.578,0,0,0-16.556-19.66l5.605-6.331A111.241,111.241,0,0,1,2050.935,1606.384Z" transform="translate(-2023.687 -1581.263)" fill="#112770"/>
        </g>
        <g id="Grupo_230" data-name="Grupo 230" transform="translate(39.767 3.904)" opacity="0.3">
          <path id="Caminho_94" data-name="Caminho 94" d="M2248.117,1615.376a55.317,55.317,0,0,1,17.667,15.677,48.135,48.135,0,0,1,5.321,8.983l10.461-4.182c-.052-.14-.331-.816-.856-1.9l-5.173,2.07a47.7,47.7,0,0,0-5.31-8.984,55.4,55.4,0,0,0-17.674-15.678l2.7-4.889c-.55-.329-1.111-.649-1.694-.97Z" transform="translate(-2248.117 -1605.502)" fill="#112770"/>
        </g>
        <g id="Grupo_231" data-name="Grupo 231" transform="translate(80.167 1.409)" opacity="0.3">
          <path id="Caminho_95" data-name="Caminho 95" d="M2032.433,1598.456a100.577,100.577,0,0,1,18.064,21.454l9.726-5.7c-.045-.08-.26-.446-.634-1.042l-4.656,2.722a100.724,100.724,0,0,0-18.061-21.455l3.525-3.987-.5-.442Z" transform="translate(-2032.433 -1590.011)" fill="#112770"/>
        </g>
        <g id="Grupo_232" data-name="Grupo 232" transform="translate(38.355 3.098)">
          <path id="Caminho_96" data-name="Caminho 96" d="M2263.768,1637.866a1.382,1.382,0,0,0,.53-.1,1.513,1.513,0,0,0,.2-.1l10.255-4.1a1.411,1.411,0,0,0,.787-1.831,67.588,67.588,0,0,0-28.639-31.06,1.409,1.409,0,0,0-1.914.555l-5.44,9.867a1.379,1.379,0,0,0-.121,1.074,1.4,1.4,0,0,0,.673.843,54.01,54.01,0,0,1,17.211,15.275,46.935,46.935,0,0,1,5.158,8.7A1.407,1.407,0,0,0,2263.768,1637.866Zm8.583-6.375-7.873,3.143a53.592,53.592,0,0,0-4.9-8.013,57.125,57.125,0,0,0-16.9-15.378l4.085-7.407A65.275,65.275,0,0,1,2272.351,1631.491Z" transform="translate(-2239.366 -1600.499)" fill="#112770"/>
        </g>
        <g id="Grupo_233" data-name="Grupo 233" transform="translate(54.325 26.497)">
          <path id="Caminho_97" data-name="Caminho 97" d="M1914.944,1762.159l10.8,19.82a9.741,9.741,0,0,0,10.346,4.916l46.494-8.665a5.345,5.345,0,0,0,4.36-5.519v0a5.3,5.3,0,0,0-.794-2.538l-12.232-19.782a9.752,9.752,0,0,0-10.078-4.457l-45.187,8.422a5.346,5.346,0,0,0-3.709,7.809Z" transform="translate(-1914.287 -1745.764)" fill="#fff"/>
        </g>
        <g id="Grupo_234" data-name="Grupo 234" transform="translate(52.591 38.049)">
          <path id="Caminho_98" data-name="Caminho 98" d="M1916.342,1817.482c-1.185,2.438-3.325,12.657-1.62,15.776l10.8,19.817a9.744,9.744,0,0,0,10.342,4.917l46.495-8.668c3.691-.687,6.523-12.687,6.118-16.455" transform="translate(-1914.087 -1817.482)" fill="#fff"/>
        </g>
        <g id="Grupo_235" data-name="Grupo 235" transform="translate(52.589 38.048)" opacity="0.3">
          <path id="Caminho_99" data-name="Caminho 99" d="M1914.722,1833.254l10.8,19.82a9.747,9.747,0,0,0,10.348,4.915l46.494-8.663c3.686-.687,6.52-12.68,6.121-16.451a5.345,5.345,0,0,1-4.365,5.518l-46.5,8.668a9.749,9.749,0,0,1-10.344-4.917l-10.8-19.821a5.3,5.3,0,0,1-.132-4.845h0C1915.165,1819.916,1913.024,1830.134,1914.722,1833.254Z" transform="translate(-1914.092 -1817.477)" fill="#112770"/>
        </g>
        <g id="Grupo_236" data-name="Grupo 236" transform="translate(52.912 25.087)">
          <path id="Caminho_100" data-name="Caminho 100" d="M1926.973,1781.133a11.3,11.3,0,0,0,2.059-.193l46.5-8.669a6.752,6.752,0,0,0,4.5-10.186L1967.8,1742.3a11.147,11.147,0,0,0-11.53-5.1l-45.187,8.422a6.754,6.754,0,0,0-4.691,9.868l10.8,19.819A11.124,11.124,0,0,0,1926.973,1781.133Zm1.543-2.963a8.316,8.316,0,0,1-8.848-4.207l-10.8-19.817a3.937,3.937,0,0,1,2.733-5.749l45.188-8.425a8.387,8.387,0,0,1,8.618,3.811l12.235,19.785a3.937,3.937,0,0,1-2.624,5.937l-46.5,8.666Z" transform="translate(-1905.56 -1737.011)" fill="#112770"/>
        </g>
        <g id="Grupo_237" data-name="Grupo 237" transform="translate(51.177 36.639)">
          <path id="Caminho_101" data-name="Caminho 101" d="M1926.738,1852.227a11.283,11.283,0,0,0,2.063-.189l46.5-8.668c2.222-.41,4.134-3.116,5.68-8.033,1.144-3.636,1.809-7.823,1.581-9.955a1.408,1.408,0,0,0-2.8.3,27.643,27.643,0,0,1-1.468,8.81c-1.442,4.587-2.924,6-3.508,6.112l-46.5,8.665a8.317,8.317,0,0,1-8.851-4.208l-10.8-19.815c-.446-.82-.71-3.153-.114-7.268a31.835,31.835,0,0,1,1.767-7.222,1.411,1.411,0,0,0-2.541-1.229,34.548,34.548,0,0,0-2.018,8.044c-.623,4.32-.479,7.357.429,9.023l10.8,19.817A11.118,11.118,0,0,0,1926.738,1852.227Z" transform="translate(-1905.35 -1808.733)" fill="#112770"/>
        </g>
        <g id="Grupo_238" data-name="Grupo 238" transform="translate(1.409 52.519)">
          <path id="Caminho_102" data-name="Caminho 102" d="M2336.549,1939.2a5.644,5.644,0,0,0,5.328,3.8,5.655,5.655,0,0,0,3.959-1.621c14.1-13.84,35.56-20.557,45.014-22.977a4,4,0,0,0,2.914-4.711l-.7-3.212a3.989,3.989,0,0,0-4.888-3.031,144.271,144.271,0,0,0-20.885,7.075,113.634,113.634,0,0,0-15.578,8.079,80.874,80.874,0,0,0-13.808,10.76A5.61,5.61,0,0,0,2336.549,1939.2Z" transform="translate(-2336.239 -1907.32)" fill="#fff"/>
        </g>
        <g id="Grupo_239" data-name="Grupo 239" transform="translate(1.481 52.98)" opacity="0.3">
          <path id="Caminho_103" data-name="Caminho 103" d="M2336.241,1939.744a5.592,5.592,0,0,0,9.523,4.035c14.1-13.841,35.559-20.559,45.011-22.978a4,4,0,0,0,2.917-4.71l-.7-3.212a3.969,3.969,0,0,0-2.044-2.7l.395,1.87a4.008,4.008,0,0,1-2.826,4.708,121.7,121.7,0,0,0-26.639,10.494,7.936,7.936,0,0,1-10.235-2.253h0a80.7,80.7,0,0,0-13.808,10.761A5.306,5.306,0,0,0,2336.241,1939.744Z" transform="translate(-2336.24 -1910.183)" fill="#112770"/>
        </g>
        <g id="Grupo_240" data-name="Grupo 240" transform="translate(0 51.108)">
          <path id="Caminho_104" data-name="Caminho 104" d="M2334.532,1937.064a7.037,7.037,0,0,0,4.94-2.031c14.015-13.747,35.706-20.4,44.387-22.619a5.381,5.381,0,0,0,3.934-6.372l-.691-3.216a5.4,5.4,0,0,0-6.613-4.1,145.407,145.407,0,0,0-21.1,7.147c-12.188,5.235-22.221,11.668-29.81,19.127a7.057,7.057,0,0,0,4.954,12.061Zm47.293-35.686a2.591,2.591,0,0,1,2.522,2.043l.693,3.214a2.574,2.574,0,0,1-1.887,3.048,133.987,133.987,0,0,0-20.985,7.285c-10.121,4.521-18.418,9.921-24.666,16.054h0a4.233,4.233,0,0,1-7.195-2.86,4.13,4.13,0,0,1,1.246-3.146c7.336-7.217,17.078-13.453,28.949-18.548a142.43,142.43,0,0,1,20.684-7.007A2.454,2.454,0,0,1,2381.825,1901.378Z" transform="translate(-2327.483 -1898.559)" fill="#112770"/>
        </g>
        <ellipse id="Elipse_10" data-name="Elipse 10" cx="7.764" cy="6.581" rx="7.764" ry="6.581" transform="translate(90.288 53.336) rotate(-120)" fill="#1ba3fc"/>
        <ellipse id="Elipse_11" data-name="Elipse 11" cx="7.764" cy="6.581" rx="7.764" ry="6.581" transform="translate(90.288 53.336) rotate(-120)" fill="#1ba3fc"/>
        <path id="Caminho_105" data-name="Caminho 105" d="M2089.236,1831.733c2.152,3.713,6.435,5.254,9.587,3.438a6.541,6.541,0,0,0,2.962-6.56,5.777,5.777,0,0,1-2.323,2.541c-3.149,1.823-7.441.281-9.589-3.432a8.871,8.871,0,0,1-1.14-3.454A8.1,8.1,0,0,0,2089.236,1831.733Z" transform="translate(-2002.831 -1785.125)" fill="#112770" opacity="0.3"/>
        <ellipse id="Elipse_12" data-name="Elipse 12" cx="7.764" cy="6.581" rx="7.764" ry="6.581" transform="translate(90.288 53.336) rotate(-120)" fill="none" stroke="#112770" stroke-miterlimit="10" stroke-width="20"/>
        <g id="Grupo_241" data-name="Grupo 241" transform="translate(83.806 34.421)">
          <path id="Caminho_106" data-name="Caminho 106" d="M2088.582,1812.752a7.137,7.137,0,0,0,3.587-.945,7.472,7.472,0,0,0,3.573-5.267,10.2,10.2,0,0,0-6.4-11.088,7.5,7.5,0,0,0-6.35.465c-3.815,2.2-4.863,7.558-2.335,11.939h0A9.406,9.406,0,0,0,2088.582,1812.752Zm-1.985-14.968a5.328,5.328,0,0,1,1.8.323,7.375,7.375,0,0,1,4.58,7.931,4.707,4.707,0,0,1-2.214,3.329c-2.469,1.427-5.9.118-7.656-2.918s-1.168-6.662,1.3-8.09A4.341,4.341,0,0,1,2086.6,1797.784Z" transform="translate(-2079.282 -1794.963)" fill="#112770"/>
        </g>
        <path id="Caminho_107" data-name="Caminho 107" d="M2108.62,1816.61c-.342.766.719,1.983,2.366,2.716s3.263.713,3.6-.051-.716-1.982-2.362-2.716S2108.96,1815.847,2108.62,1816.61Z" transform="translate(-2018.949 -1778.209)" fill="#fff" opacity="0.5"/>
        <g id="Grupo_242" data-name="Grupo 242" transform="translate(58.048 38.326)">
          <path id="Caminho_108" data-name="Caminho 108" d="M1982.226,1840.129a1.6,1.6,0,0,0,.317-.036l21.066-4.861a1.419,1.419,0,0,0,1.083-1.561l-1.115-8.45,11.428-3.255a1.409,1.409,0,1,0-.773-2.709l-12.6,3.583a1.412,1.412,0,0,0-1.01,1.543l1.1,8.389-18.992,4.384-7.575-8.8a1.407,1.407,0,0,0-1.262-.475l-19.3,2.705a1.41,1.41,0,0,0,.391,2.792l18.543-2.6,7.629,8.858A1.406,1.406,0,0,0,1982.226,1840.129Z" transform="translate(-1953.385 -1819.201)" fill="#112770"/>
        </g>
      </g>
      <g id="Grupo_264" data-name="Grupo 264" transform="translate(18.285)">
        <g id="Grupo_244" data-name="Grupo 244" transform="translate(1.408 1.409)">
          <path id="Caminho_109" data-name="Caminho 109" d="M1848.633,740.927c0,46.226,39.837,83.7,88.989,83.7a92.253,92.253,0,0,0,43.457-11.027,122.54,122.54,0,0,1-17.885,1.3c-23.049,0-44.793-6.319-61.218-17.793a66.688,66.688,0,0,1-19.168-19.908,47.417,47.417,0,0,1,0-50.43,66.692,66.692,0,0,1,19.168-19.911c16.426-11.472,38.169-17.791,61.218-17.791,18.733,0,36.469,3.266,51.512,11.112a90.125,90.125,0,0,0-77.084-42.957C1888.471,657.226,1848.633,694.7,1848.633,740.927Z" transform="translate(-1848.633 -657.226)" fill="#fff"/>
        </g>
        <g id="Grupo_245" data-name="Grupo 245" transform="translate(1.406 29.862)" opacity="0.3">
          <path id="Caminho_110" data-name="Caminho 110" d="M2057.416,889.119c0,46.227,39.841,83.7,88.988,83.7a92.256,92.256,0,0,0,43.458-11.026,122.711,122.711,0,0,1-17.884,1.3c-23.053,0-44.791-6.32-61.217-17.793A66.614,66.614,0,0,1,2091.6,925.4a51.087,51.087,0,0,1-5.071-11.078c-29.752-21.166-17.907-58.374-6.967-80.448A80.585,80.585,0,0,0,2057.416,889.119Z" transform="translate(-2057.416 -833.87)" fill="#112770"/>
        </g>
        <g id="Grupo_246" data-name="Grupo 246" transform="translate(28.324 33.255)">
          <path id="Caminho_111" data-name="Caminho 111" d="M1848.633,917.849a48.194,48.194,0,0,0,7.258,25.217,66.694,66.694,0,0,0,19.17,19.907c16.424,11.473,38.167,17.793,61.219,17.793a122.589,122.589,0,0,0,17.884-1.3l-.827-5.575a116.507,116.507,0,0,1-17.056,1.243c-45.294,0-82.01-25.644-82.01-57.28s36.716-57.28,82.01-57.28c18.378,0,35.348,4.222,49.021,11.356l2.488-5.881c-15.042-7.845-32.777-11.111-51.51-11.111-23.051,0-44.794,6.319-61.219,17.792a66.695,66.695,0,0,0-19.17,19.908A48.193,48.193,0,0,0,1848.633,917.849Z" transform="translate(-1848.633 -854.934)" fill="#fff"/>
        </g>
        <g id="Grupo_247" data-name="Grupo 247" transform="translate(28.324 33.255)" opacity="0.3">
          <path id="Caminho_112" data-name="Caminho 112" d="M1848.633,917.849a48.194,48.194,0,0,0,7.258,25.217,66.694,66.694,0,0,0,19.17,19.907c16.424,11.473,38.167,17.793,61.219,17.793a122.589,122.589,0,0,0,17.884-1.3l-.827-5.575a116.507,116.507,0,0,1-17.056,1.243c-45.294,0-82.01-25.644-82.01-57.28s36.716-57.28,82.01-57.28c18.378,0,35.348,4.222,49.021,11.356l2.488-5.881c-15.042-7.845-32.777-11.111-51.51-11.111-23.051,0-44.794,6.319-61.219,17.792a66.695,66.695,0,0,0-19.17,19.908A48.193,48.193,0,0,0,1848.633,917.849Z" transform="translate(-1848.633 -854.934)" fill="#112770"/>
        </g>
        <g id="Grupo_248" data-name="Grupo 248" transform="translate(33.957 38.891)">
          <path id="Caminho_113" data-name="Caminho 113" d="M1809.76,947.2c0,31.637,36.719,57.281,82.009,57.281a116.574,116.574,0,0,0,17.061-1.241,82.638,82.638,0,0,0,16.423-12.02,80.56,80.56,0,0,0,7.191-7.693,76.639,76.639,0,0,0,10.606-17.117,73.771,73.771,0,0,0,0-60.537q-1.05-2.338-2.256-4.594c-13.675-7.135-30.643-11.358-49.024-11.358a110.956,110.956,0,0,0-37.883,6.468C1827.659,905.946,1809.76,925.116,1809.76,947.2Z" transform="translate(-1809.76 -889.924)" fill="#112770"/>
        </g>
        <g id="Grupo_249" data-name="Grupo 249" transform="translate(33.959 45.356)">
          <path id="Caminho_114" data-name="Caminho 114" d="M1915.936,980.878c0,31.638,36.718,57.283,82.011,57.283a116.685,116.685,0,0,0,17.059-1.243,83.018,83.018,0,0,0,16.428-12.019,80.805,80.805,0,0,0,7.184-7.694c-41.811,27.459-107.7-5.487-98.614-22.182,9.769-17.943,7.186-24.091,4.8-44.6-.907-7.823,7.262-14.752,15.261-20.361C1933.84,939.619,1915.936,958.79,1915.936,980.878Z" transform="translate(-1915.936 -930.065)" fill="#10235b"/>
        </g>
        <g id="Grupo_250" data-name="Grupo 250" transform="translate(0)">
          <path id="Caminho_115" data-name="Caminho 115" d="M1930.28,818.7a93.233,93.233,0,0,0,44.116-11.193,1.408,1.408,0,0,0-.864-2.639,120.9,120.9,0,0,1-17.675,1.29c-22.765,0-44.22-6.229-60.411-17.539a65.216,65.216,0,0,1-18.77-19.483,46,46,0,0,1,0-48.971,65.178,65.178,0,0,1,18.77-19.484c16.191-11.31,37.646-17.538,60.411-17.538,19.815,0,36.929,3.684,50.858,10.953a1.408,1.408,0,0,0,1.856-1.98,90.515,90.515,0,0,0-32.363-31.447,92.405,92.405,0,0,0-45.928-12.19,94.655,94.655,0,0,0-35.158,6.678,90.538,90.538,0,0,0-28.728,18.221A84.662,84.662,0,0,0,1847,700.431a80.805,80.805,0,0,0,0,66.317,84.68,84.68,0,0,0,19.392,27.054,90.544,90.544,0,0,0,28.728,18.22A94.678,94.678,0,0,0,1930.28,818.7Zm35.316-10.1a89.426,89.426,0,0,1-35.316,7.286c-48.292,0-87.576-36.917-87.576-82.293s39.284-82.292,87.576-82.292a89.2,89.2,0,0,1,73.173,38.091c-13.444-6.016-29.429-9.063-47.6-9.063-23.337,0-45.362,6.409-62.026,18.046a68.071,68.071,0,0,0-19.57,20.335,48.853,48.853,0,0,0,0,51.89,68.086,68.086,0,0,0,19.57,20.332c16.664,11.639,38.689,18.046,62.026,18.046C1959.112,808.974,1962.366,808.848,1965.6,808.6Z" transform="translate(-1839.885 -648.479)" fill="#112770"/>
        </g>
        <g id="Grupo_251" data-name="Grupo 251" transform="translate(26.912 31.846)">
          <path id="Caminho_116" data-name="Caminho 116" d="M1928.94,974.84a123.947,123.947,0,0,0,18.089-1.32,1.4,1.4,0,0,0,.923-.554,1.41,1.41,0,0,0,.262-1.046l-.823-5.575a1.411,1.411,0,0,0-1.6-1.187,115.533,115.533,0,0,1-16.85,1.227c-44.445,0-80.6-25.063-80.6-55.872s36.159-55.871,80.6-55.871c17.6,0,34.328,3.872,48.367,11.2a1.409,1.409,0,0,0,1.951-.7l2.492-5.88a1.408,1.408,0,0,0-.645-1.8c-14.341-7.481-31.891-11.275-52.166-11.275-23.337,0-45.363,6.409-62.025,18.049a68.058,68.058,0,0,0-19.571,20.332,48.849,48.849,0,0,0,0,51.893,68.086,68.086,0,0,0,19.571,20.332C1883.577,968.429,1905.6,974.84,1928.94,974.84Zm16.281-3.909a121.307,121.307,0,0,1-16.281,1.09c-22.764,0-44.219-6.227-60.414-17.538A65.246,65.246,0,0,1,1849.759,935a46.021,46.021,0,0,1,0-48.971,65.239,65.239,0,0,1,18.767-19.483c16.195-11.311,37.648-17.54,60.414-17.54,19.27,0,35.986,3.486,49.7,10.361l-1.389,3.279c-14.156-7.084-30.825-10.822-48.314-10.822a113.964,113.964,0,0,0-32.321,4.56,91.2,91.2,0,0,0-26.481,12.471,62.479,62.479,0,0,0-17.968,18.633,43.186,43.186,0,0,0,0,46.051,62.464,62.464,0,0,0,17.968,18.632,91.16,91.16,0,0,0,26.481,12.472,113.968,113.968,0,0,0,32.321,4.56,118.813,118.813,0,0,0,15.867-1.059Z" transform="translate(-1839.885 -846.187)" fill="#112770"/>
        </g>
        <g id="Grupo_252" data-name="Grupo 252" transform="translate(32.549 37.482)">
          <path id="Caminho_117" data-name="Caminho 117" d="M1884.434,998.556A118.349,118.349,0,0,0,1901.7,997.3a1.4,1.4,0,0,0,.478-.163,84.438,84.438,0,0,0,16.705-12.222A79.139,79.139,0,0,0,1937,959.653a75.207,75.207,0,0,0,0-61.695c-.706-1.574-1.485-3.148-2.3-4.681a1.4,1.4,0,0,0-.59-.584c-14.444-7.535-31.615-11.517-49.673-11.517a113.986,113.986,0,0,0-32.323,4.56,91.237,91.237,0,0,0-26.477,12.471,62.467,62.467,0,0,0-17.974,18.634,43.206,43.206,0,0,0,0,46.052,62.482,62.482,0,0,0,17.974,18.632A91.235,91.235,0,0,0,1852.111,994,114.051,114.051,0,0,0,1884.434,998.556Zm16.595-4.009a115.6,115.6,0,0,1-16.595,1.191c-44.446,0-80.6-25.065-80.6-55.871s36.154-55.873,80.6-55.873c17.44,0,34.022,3.8,47.982,11,.712,1.352,1.388,2.739,2.01,4.124a72.38,72.38,0,0,1,0,59.383,76.388,76.388,0,0,1-17.473,24.361A81.59,81.59,0,0,1,1901.028,994.547Z" transform="translate(-1801.013 -881.176)" fill="#112770"/>
        </g>
        <g id="Grupo_253" data-name="Grupo 253" transform="translate(14.634 56.049)">
          <path id="Caminho_118" data-name="Caminho 118" d="M2591.093,1025.51c0,16.05,7.448,29.061,16.628,29.061,8.807,0,16.012-11.965,16.588-27.1.027-.649.039-1.3.039-1.961,0-16.049-7.448-29.061-16.626-29.061-8.493,0-15.494,11.124-16.5,25.486Q2591.094,1023.692,2591.093,1025.51Z" transform="translate(-2591.093 -996.449)" fill="#fff"/>
        </g>
        <g id="Grupo_254" data-name="Grupo 254" transform="translate(31.266 56.049)">
          <path id="Caminho_119" data-name="Caminho 119" d="M2539,1054.571h8.393c8.8,0,16.006-11.965,16.581-27.1.03-.649.039-1.3.039-1.961,0-16.049-7.441-29.061-16.619-29.061H2539c9.18,0,16.622,13.012,16.622,29.061,0,.659-.009,1.313-.039,1.961C2555.013,1042.606,2547.809,1054.571,2539,1054.571Z" transform="translate(-2539.002 -996.449)" fill="#fff"/>
        </g>
        <g id="Grupo_255" data-name="Grupo 255" transform="translate(13.226 54.64)">
          <path id="Caminho_120" data-name="Caminho 120" d="M2600.385,1048.642c4.966,0,9.575-3.275,12.975-9.221,3.261-5.7,5.057-13.246,5.057-21.249s-1.8-15.551-5.057-21.249c-3.4-5.945-8.01-9.221-12.975-9.221s-9.578,3.276-12.985,9.221c-3.254,5.7-5.054,13.245-5.054,21.249s1.8,15.55,5.054,21.249C2590.808,1045.367,2595.415,1048.642,2600.385,1048.642Zm0-58.122c3.914,0,7.652,2.77,10.529,7.8,3.023,5.279,4.688,12.328,4.688,19.849s-1.664,14.57-4.687,19.85c-2.877,5.032-6.615,7.8-10.529,7.8s-7.658-2.77-10.536-7.8c-3.023-5.28-4.689-12.33-4.689-19.85s1.666-14.57,4.689-19.849C2592.727,993.29,2596.465,990.52,2600.385,990.52Z" transform="translate(-2582.346 -987.702)" fill="#112770"/>
        </g>
        <g id="Grupo_256" data-name="Grupo 256" transform="translate(29.856 54.64)">
          <path id="Caminho_121" data-name="Caminho 121" d="M2531.666,1048.642h8.384c4.968,0,9.582-3.275,12.979-9.221,3.263-5.7,5.057-13.246,5.057-21.249s-1.794-15.551-5.057-21.249c-3.4-5.945-8.011-9.221-12.979-9.221h-8.384a1.409,1.409,0,1,0,0,2.818c3.907,0,7.647,2.77,10.529,7.8,3.019,5.279,4.685,12.328,4.685,19.849s-1.666,14.57-4.685,19.85c-2.882,5.032-6.622,7.8-10.529,7.8a1.409,1.409,0,1,0,0,2.818Zm8.384-58.122c3.918,0,7.654,2.77,10.536,7.8,3.021,5.279,4.683,12.328,4.683,19.849s-1.661,14.57-4.683,19.85c-2.882,5.032-6.617,7.8-10.536,7.8h-.728a21.736,21.736,0,0,0,5.319-6.4c3.261-5.7,5.055-13.246,5.055-21.249s-1.794-15.551-5.055-21.249a21.734,21.734,0,0,0-5.319-6.4Z" transform="translate(-2530.256 -987.702)" fill="#112770"/>
        </g>
        <g id="Grupo_257" data-name="Grupo 257" transform="translate(14.634 81.536)" opacity="0.3">
          <path id="Caminho_122" data-name="Caminho 122" d="M2539.239,1158.256c0,16.049,7.442,29.062,16.626,29.062h8.388c8.809,0,16.015-11.967,16.593-27.1a9.1,9.1,0,0,1-8.389,0s-18.447,9.006-33.093-5.537Q2539.24,1156.437,2539.239,1158.256Z" transform="translate(-2539.239 -1154.681)" fill="#112770"/>
        </g>
        <g id="Grupo_258" data-name="Grupo 258" transform="translate(120.375 42.208)" opacity="0.5">
          <path id="Caminho_123" data-name="Caminho 123" d="M1892.43,956.447c-6.129-16.128-21.615-31.922-42.862-42.645a1.741,1.741,0,0,1,1.012-3.269q2.368.307,4.772.679a162.164,162.164,0,0,1,18.925,4.1A27.215,27.215,0,0,1,1893.24,934.7c.013.053.029.1.042.156a76.836,76.836,0,0,1,2.437,20.949A1.7,1.7,0,0,1,1892.43,956.447Z" transform="translate(-1848.633 -910.517)" fill="#fff"/>
        </g>
        <g id="Grupo_259" data-name="Grupo 259" transform="translate(160.39 92.494)" opacity="0.5">
          <path id="Caminho_124" data-name="Caminho 124" d="M1858.91,1223.349c.807,2.774.283,6.093-.6,8.807-.355,1.1-3.509,8.3-5.145,6.226-.635-.8.087-2.736.267-3.628.354-1.8.8-3.578,1.319-5.336a35.882,35.882,0,0,1,1.8-4.937,6.249,6.249,0,0,1,.677-1.318C1857.687,1222.585,1858.645,1222.466,1858.91,1223.349Z" transform="translate(-1852.907 -1222.708)" fill="#fff"/>
        </g>
        <g id="Grupo_261" data-name="Grupo 261" transform="translate(63.357 54.945)" opacity="0.5">
          <g id="Grupo_260" data-name="Grupo 260" transform="translate(0 0)">
            <ellipse id="Elipse_13" data-name="Elipse 13" cx="9.019" cy="13.88" rx="9.019" ry="13.88" transform="translate(17.336 31.662) rotate(-163.961)" fill="#fff"/>
          </g>
        </g>
        <g id="Grupo_263" data-name="Grupo 263" transform="translate(66.365 87.671)" opacity="0.5">
          <g id="Grupo_262" data-name="Grupo 262" transform="translate(0)">
            <path id="Caminho_125" data-name="Caminho 125" d="M2442.35,1197.3c-.2,2.34-1.828,4.111-3.615,3.953s-3.078-2.185-2.873-4.527,1.83-4.112,3.616-3.953S2442.558,1194.961,2442.35,1197.3Z" transform="translate(-2435.841 -1192.767)" fill="#fff"/>
          </g>
        </g>
      </g>
    </g>
  </g>
</svg>
