<svg xmlns="http://www.w3.org/2000/svg" width="149.559" height="121.272" viewBox="0 0 149.559 121.272">
  <g id="Grupo_2664" data-name="Grupo 2664" transform="translate(45.308)">
    <g id="Grupo_266" data-name="Grupo 266" transform="translate(0 0)">
      <g id="Grupo_131" data-name="Grupo 131" transform="translate(0 60.609)">
        <g id="Grupo_107" data-name="Grupo 107">
          <ellipse id="Elipse_4" data-name="Elipse 4" cx="29.471" cy="7.677" rx="29.471" ry="7.677" fill="#0e1f51"/>
        </g>
        <g id="Grupo_108" data-name="Grupo 108" transform="translate(45.829 6.67)">
          <path id="Caminho_9" data-name="Caminho 9" d="M1497.643,2951.244l-.076.275-.275.076.275.077.076.274.076-.274.274-.077-.274-.076Z" transform="translate(-1497.292 -2951.244)" fill="#fff"/>
        </g>
        <g id="Grupo_109" data-name="Grupo 109" transform="translate(36.761 3.08)">
          <path id="Caminho_10" data-name="Caminho 10" d="M1808,2828.383l-.076.274-.275.077.275.076.076.274.077-.274.274-.076-.274-.077Z" transform="translate(-1807.653 -2828.383)" fill="#fff"/>
        </g>
        <g id="Grupo_110" data-name="Grupo 110" transform="translate(44.171 10.043)">
          <path id="Caminho_11" data-name="Caminho 11" d="M1554.384,3066.694l-.076.274-.275.075.275.077.076.274.077-.274.275-.077-.275-.075Z" transform="translate(-1554.034 -3066.694)" fill="#fff"/>
        </g>
        <g id="Grupo_111" data-name="Grupo 111" transform="translate(5.767 8.685)">
          <path id="Caminho_12" data-name="Caminho 12" d="M2868.841,3020.21l-.076.275-.275.075.275.077.076.274.076-.274.274-.077-.274-.075Z" transform="translate(-2868.49 -3020.21)" fill="#fff"/>
        </g>
        <g id="Grupo_112" data-name="Grupo 112" transform="translate(16.061 1.42)">
          <path id="Caminho_13" data-name="Caminho 13" d="M2516.507,2771.564l-.075.274-.275.077.275.075.075.275.076-.275.275-.075-.275-.077Z" transform="translate(-2516.157 -2771.564)" fill="#fff"/>
        </g>
        <g id="Grupo_113" data-name="Grupo 113" transform="translate(19.238 11.133)">
          <path id="Caminho_14" data-name="Caminho 14" d="M2407.772,3103.991l-.076.274-.274.077.274.076.076.274.076-.274.274-.076-.274-.077Z" transform="translate(-2407.422 -3103.991)" fill="#fff"/>
        </g>
        <g id="Grupo_114" data-name="Grupo 114" transform="translate(39.572 0.413)">
          <path id="Caminho_15" data-name="Caminho 15" d="M1667.5,2737.082l-.219.788-.789.219.789.219.219.789.219-.789.789-.219-.789-.219Z" transform="translate(-1666.492 -2737.082)" fill="#fff"/>
        </g>
        <g id="Grupo_115" data-name="Grupo 115" transform="translate(33.766 11.483)">
          <path id="Caminho_16" data-name="Caminho 16" d="M1866.2,3115.993l-.219.789-.789.219.789.219.219.789.219-.789.789-.219-.789-.219Z" transform="translate(-1865.197 -3115.993)" fill="#fff"/>
        </g>
        <g id="Grupo_116" data-name="Grupo 116" transform="translate(11.975 10.826)">
          <path id="Caminho_17" data-name="Caminho 17" d="M2612.048,3093.511l-.219.789-.789.219.789.219.219.789.218-.789.789-.219-.789-.219Z" transform="translate(-2611.04 -3093.511)" fill="#fff"/>
        </g>
        <g id="Grupo_117" data-name="Grupo 117" transform="translate(5.46 3.431)">
          <path id="Caminho_18" data-name="Caminho 18" d="M2835.015,2840.384l-.219.788-.789.22.789.218.219.788.219-.788.789-.218-.789-.22Z" transform="translate(-2834.007 -2840.384)" fill="#fff"/>
        </g>
        <g id="Grupo_118" data-name="Grupo 118" transform="translate(54.02 8.028)">
          <path id="Caminho_19" data-name="Caminho 19" d="M1172.971,2997.728l-.219.789-.788.219.788.219.219.789.219-.789.789-.219-.789-.219Z" transform="translate(-1171.963 -2997.728)" fill="#fff"/>
        </g>
        <g id="Grupo_119" data-name="Grupo 119" transform="translate(22.153 2.774)">
          <path id="Caminho_20" data-name="Caminho 20" d="M2263.68,2817.9l-.219.789-.789.219.789.218.219.789.219-.789.788-.218-.788-.219Z" transform="translate(-2262.672 -2817.903)" fill="#fff"/>
        </g>
        <g id="Grupo_120" data-name="Grupo 120" transform="translate(32.758 5.006)">
          <path id="Caminho_21" data-name="Caminho 21" d="M1900.687,2894.281l-.22.789-.788.219.788.219.22.788.218-.788.789-.219-.789-.219Z" transform="translate(-1899.679 -2894.281)" fill="#fff"/>
        </g>
        <g id="Grupo_121" data-name="Grupo 121" transform="translate(31.618 9.436)">
          <path id="Caminho_22" data-name="Caminho 22" d="M1991.469,3046.144a.237.237,0,1,0,.237-.236A.237.237,0,0,0,1991.469,3046.144Z" transform="translate(-1991.469 -3045.907)" fill="#fff"/>
        </g>
        <g id="Grupo_122" data-name="Grupo 122" transform="translate(12.697 6.385)">
          <ellipse id="Elipse_5" data-name="Elipse 5" cx="0.237" cy="0.237" rx="0.237" ry="0.237" transform="translate(0.109 0.57) rotate(-103.282)" fill="#fff"/>
        </g>
        <g id="Grupo_123" data-name="Grupo 123" transform="translate(24.649 7.914)">
          <path id="Caminho_23" data-name="Caminho 23" d="M2229.987,2994.067a.237.237,0,1,0,.237-.237A.237.237,0,0,0,2229.987,2994.067Z" transform="translate(-2229.987 -2993.83)" fill="#fff"/>
        </g>
        <g id="Grupo_124" data-name="Grupo 124" transform="translate(39.334 7.677)">
          <path id="Caminho_24" data-name="Caminho 24" d="M1727.343,2985.954a.237.237,0,1,0,.237-.238A.237.237,0,0,0,1727.343,2985.954Z" transform="translate(-1727.343 -2985.717)" fill="#fff"/>
        </g>
        <g id="Grupo_125" data-name="Grupo 125" transform="translate(50.53 10.507)">
          <path id="Caminho_25" data-name="Caminho 25" d="M1344.158,3082.82a.237.237,0,1,0,.237-.238A.237.237,0,0,0,1344.158,3082.82Z" transform="translate(-1344.158 -3082.582)" fill="#fff"/>
        </g>
        <g id="Grupo_126" data-name="Grupo 126" transform="translate(47.297 3.121)">
          <ellipse id="Elipse_6" data-name="Elipse 6" cx="0.237" cy="0.237" rx="0.237" ry="0.237" transform="translate(0.438 0.619) rotate(-157.5)" fill="#fff"/>
        </g>
        <g id="Grupo_127" data-name="Grupo 127" transform="translate(38.597 12.254)">
          <path id="Caminho_26" data-name="Caminho 26" d="M1752.559,3142.6a.237.237,0,1,0,.238-.237A.237.237,0,0,0,1752.559,3142.6Z" transform="translate(-1752.559 -3142.362)" fill="#fff"/>
        </g>
        <g id="Grupo_128" data-name="Grupo 128" transform="translate(17.767 7.392)">
          <ellipse id="Elipse_7" data-name="Elipse 7" cx="0.237" cy="0.237" rx="0.237" ry="0.237" transform="translate(0.109 0.57) rotate(-103.282)" fill="#fff"/>
        </g>
        <g id="Grupo_129" data-name="Grupo 129" transform="translate(22.889 1.499)">
          <ellipse id="Elipse_8" data-name="Elipse 8" cx="0.237" cy="0.237" rx="0.237" ry="0.237" transform="translate(0.076 0.544) rotate(-99.217)" fill="#fff"/>
        </g>
        <g id="Grupo_130" data-name="Grupo 130" transform="translate(24.879 13.944)">
          <ellipse id="Elipse_9" data-name="Elipse 9" cx="0.237" cy="0.237" rx="0.237" ry="0.237" transform="translate(0.109 0.57) rotate(-103.283)" fill="#fff"/>
        </g>
      </g>
      <g id="Grupo_265" data-name="Grupo 265" transform="translate(2.569 0)">
        <g id="Grupo_177" data-name="Grupo 177" transform="translate(2.815 24.806)">
          <g id="Grupo_133" data-name="Grupo 133" transform="translate(4.22 24.206)">
            <g id="Grupo_132" data-name="Grupo 132">
              <path id="Caminho_27" data-name="Caminho 27" d="M2591.158,2326.027a17.451,17.451,0,0,0,.318,8.928c1.509,4.147,1.878-3.288,4.214-4.942Z" transform="translate(-2590.712 -2326.027)" fill="#fe3601"/>
            </g>
          </g>
          <g id="Grupo_135" data-name="Grupo 135" transform="translate(4.194 24.216)" opacity="0.5">
            <g id="Grupo_134" data-name="Grupo 134">
              <path id="Caminho_28" data-name="Caminho 28" d="M2654.123,2334.041c-.747,2.081-1.243,3.725-2.142,1.253a17.439,17.439,0,0,1-.317-8.928l.072.064a16.779,16.779,0,0,0,.487,8.084c.765,2.1,1.236,1.227,1.82-.362C2654.517,2332.865,2654.629,2332.631,2654.123,2334.041Z" transform="translate(-2651.217 -2326.366)" fill="#fff"/>
            </g>
          </g>
          <g id="Grupo_137" data-name="Grupo 137" transform="translate(3.966 23.95)">
            <g id="Grupo_136" data-name="Grupo 136">
              <path id="Caminho_29" data-name="Caminho 29" d="M2583.823,2327.961h0c.591,0,.927-.941,1.432-2.361s1.143-3.2,2.089-3.87a.257.257,0,0,0,.021-.4l-4.532-3.985a.255.255,0,0,0-.417.129,18.3,18.3,0,0,0-.415,2.955,15.547,15.547,0,0,0,.74,6.123C2583.1,2327.539,2583.426,2327.961,2583.823,2327.961Zm2.979-6.448a10.329,10.329,0,0,0-2.027,3.915c-.208.584-.405,1.135-.592,1.521-.237.487-.359.5-.36.5h0s-.219-.029-.6-1.073a15,15,0,0,1-.71-5.9,19.4,19.4,0,0,1,.311-2.457Z" transform="translate(-2581.965 -2317.28)" fill="#112770"/>
            </g>
          </g>
          <g id="Grupo_139" data-name="Grupo 139" transform="translate(4.3 24.216)" opacity="0.3">
            <g id="Grupo_138" data-name="Grupo 138">
              <path id="Caminho_30" data-name="Caminho 30" d="M2596.482,2330.352c-.943.668-1.566,2.279-2.073,3.689-.329-.751.278-2.275-.416-3.249a27.674,27.674,0,0,0-2.384-2.307,16.86,16.86,0,0,1,.341-2.12Z" transform="translate(-2591.609 -2326.366)" fill="#112770"/>
            </g>
          </g>
          <g id="Grupo_141" data-name="Grupo 141" transform="translate(11.252 28.271)">
            <g id="Grupo_140" data-name="Grupo 140">
              <path id="Caminho_31" data-name="Caminho 31" d="M2261.484,2466.715c-1.3-3.4-8.517-.65-7.222,2.751s6.291,5.658,6.291,5.658S2262.78,2470.115,2261.484,2466.715Z" transform="translate(-2254.107 -2465.16)" fill="#fd6008"/>
            </g>
          </g>
          <g id="Grupo_143" data-name="Grupo 143" transform="translate(12.577 29.595)">
            <g id="Grupo_142" data-name="Grupo 142">
              <path id="Caminho_32" data-name="Caminho 32" d="M2303.839,2517.242c.131-.406.268-.882.389-1.4a8.313,8.313,0,0,0,.021-4.659,1.033,1.033,0,0,0-.878-.656,4.212,4.212,0,0,0-3.648,1.391,1.034,1.034,0,0,0-.221,1.074,8.34,8.34,0,0,0,3.116,3.464C2303.053,2516.762,2303.472,2517.026,2303.839,2517.242Z" transform="translate(-2299.435 -2510.48)" fill="#fdbc01"/>
            </g>
          </g>
          <g id="Grupo_145" data-name="Grupo 145" transform="translate(11.252 30.426)" opacity="0.5">
            <g id="Grupo_144" data-name="Grupo 144">
              <path id="Caminho_33" data-name="Caminho 33" d="M2254.264,2541.08c1.3,3.4,6.29,5.659,6.29,5.659s1.979-4.449,1.121-7.808a15.172,15.172,0,0,1-1.133,6.531.369.369,0,0,1-.509.2c-1.163-.588-4.824-2.624-5.923-5.458A2.278,2.278,0,0,0,2254.264,2541.08Z" transform="translate(-2254.109 -2538.931)" fill="#fff"/>
            </g>
          </g>
          <g id="Grupo_147" data-name="Grupo 147" transform="translate(11.253 28.196)" opacity="0.3">
            <g id="Grupo_146" data-name="Grupo 146">
              <path id="Caminho_34" data-name="Caminho 34" d="M2256.648,2466.981c.011.029.022.058.034.087a6.09,6.09,0,0,0,.623,1.154s.388-1.538,2.988-2.529,3.912-.1,3.912-.1a6.118,6.118,0,0,0-.3-1.276c-.01-.03-.021-.059-.032-.088a2.5,2.5,0,0,0-.2-.411,6.74,6.74,0,0,0-.572-.609c-1.633-1.22-3.985-.422-5.4.758a2.806,2.806,0,0,0-1.17,2.571A2.452,2.452,0,0,0,2256.648,2466.981Z" transform="translate(-2256.494 -2462.6)" fill="#112770"/>
            </g>
          </g>
          <g id="Grupo_149" data-name="Grupo 149" transform="translate(0.258 0.256)">
            <g id="Grupo_148" data-name="Grupo 148">
              <path id="Caminho_35" data-name="Caminho 35" d="M2272.721,1524.583c3.206,8.417,8.621,12.668,12.88,11.046s5.749-8.5,2.542-16.921c-2.288-6.009-8.4-10.223-11.7-12.143a2.11,2.11,0,0,0-3.063,1.167C2272.187,1511.365,2270.433,1518.574,2272.721,1524.583Z" transform="translate(-2271.606 -1506.281)" fill="#eeedee"/>
            </g>
          </g>
          <g id="Grupo_151" data-name="Grupo 151" transform="translate(1.428 0.256)">
            <g id="Grupo_150" data-name="Grupo 150">
              <path id="Caminho_36" data-name="Caminho 36" d="M2669.747,1509.756a25.277,25.277,0,0,1,5.462-2.081c-.653-.428-1.261-.8-1.8-1.109a2.111,2.111,0,0,0-3.064,1.166C2670.157,1508.32,2669.949,1509,2669.747,1509.756Z" transform="translate(-2669.747 -1506.281)" fill="#fe3601"/>
            </g>
          </g>
          <g id="Grupo_153" data-name="Grupo 153" transform="translate(1.428 0.256)">
            <g id="Grupo_152" data-name="Grupo 152">
              <path id="Caminho_37" data-name="Caminho 37" d="M2669.747,1509.756a25.277,25.277,0,0,1,5.462-2.081c-.653-.428-1.261-.8-1.8-1.109a2.111,2.111,0,0,0-3.064,1.166C2670.157,1508.32,2669.949,1509,2669.747,1509.756Z" transform="translate(-2669.747 -1506.281)" fill="#fe3601"/>
            </g>
          </g>
          <g id="Grupo_155" data-name="Grupo 155" transform="translate(1.428 0.256)" opacity="0.5">
            <g id="Grupo_154" data-name="Grupo 154">
              <path id="Caminho_38" data-name="Caminho 38" d="M2670.349,1507.733a2.111,2.111,0,0,1,3.064-1.166c.535.311,1.143.681,1.8,1.109q-.289.073-.582.154c-.419-.264-.814-.5-1.176-.711l-.077-.043a.167.167,0,0,1,0,.038c-.02.2-.4.326-.852.28s-.8-.245-.78-.445v-.013a2.1,2.1,0,0,0-1.356,1.349c-.135.409-.275.863-.417,1.356l-.224.116C2669.949,1509,2670.157,1508.32,2670.349,1507.733Z" transform="translate(-2669.747 -1506.281)" fill="#fff"/>
            </g>
          </g>
          <g id="Grupo_157" data-name="Grupo 157" transform="translate(0.257 1.651)">
            <g id="Grupo_156" data-name="Grupo 156">
              <path id="Caminho_39" data-name="Caminho 39" d="M2272.726,1570.943c3.206,8.416,8.621,12.668,12.88,11.046a6.05,6.05,0,0,0,3.31-3.337,14.1,14.1,0,0,0,.813-7.413,26.463,26.463,0,0,0-1.58-6.171c-1.92-5.037-6.52-8.813-9.905-11.033a25.284,25.284,0,0,0-5.463,2.081C2271.73,1560.027,2270.808,1565.906,2272.726,1570.943Z" transform="translate(-2271.611 -1554.036)" fill="#eeedee"/>
            </g>
          </g>
          <g id="Grupo_159" data-name="Grupo 159" transform="translate(10.995 28.015)">
            <g id="Grupo_158" data-name="Grupo 158">
              <path id="Caminho_40" data-name="Caminho 40" d="M2252.063,2466.873a.261.261,0,0,0,.091-.017.254.254,0,0,0,.142-.135,18.306,18.306,0,0,0,.966-2.974,13.911,13.911,0,0,0,.389-2.783,7.423,7.423,0,0,0-.418-2.847h0a2.6,2.6,0,0,0-2.045-1.642,5.77,5.77,0,0,0-5.22,1.987,2.6,2.6,0,0,0-.434,2.588,7.448,7.448,0,0,0,1.582,2.4,14,14,0,0,0,2.141,1.819,18.377,18.377,0,0,0,2.7,1.577A.247.247,0,0,0,2252.063,2466.873Zm.692-8.573a9.669,9.669,0,0,1,.013,5.321,19.025,19.025,0,0,1-.838,2.649,18.857,18.857,0,0,1-2.389-1.421,9.67,9.67,0,0,1-3.53-3.981,2.131,2.131,0,0,1,.365-2.1,5.259,5.259,0,0,1,4.71-1.794,2.128,2.128,0,0,1,1.668,1.324Zm.239-.092h0Z" transform="translate(-2245.361 -2456.398)" fill="#112770"/>
            </g>
          </g>
          <g id="Grupo_161" data-name="Grupo 161" transform="translate(1.172)">
            <g id="Grupo_160" data-name="Grupo 160">
              <path id="Caminho_41" data-name="Caminho 41" d="M2661.254,1501.519a.266.266,0,0,0,.119-.029,24.535,24.535,0,0,1,2.642-1.187,24.833,24.833,0,0,1,2.763-.873.255.255,0,0,0,.19-.205.258.258,0,0,0-.113-.256c-.59-.387-1.2-.762-1.808-1.116a2.366,2.366,0,0,0-3.434,1.308c-.22.67-.425,1.355-.607,2.037a.255.255,0,0,0,.248.322Zm4.837-2.436c-.754.209-1.511.458-2.258.742s-1.478.6-2.179.948c.139-.488.288-.975.445-1.454a1.855,1.855,0,0,1,2.692-1.025C2665.228,1498.547,2665.663,1498.812,2666.092,1499.083Z" transform="translate(-2660.998 -1497.532)" fill="#112770"/>
            </g>
          </g>
          <g id="Grupo_163" data-name="Grupo 163" transform="translate(0 1.395)">
            <g id="Grupo_162" data-name="Grupo 162">
              <path id="Caminho_42" data-name="Caminho 42" d="M2275.247,1574.093a5.437,5.437,0,0,0,1.947-.356,6.322,6.322,0,0,0,3.453-3.47,14.347,14.347,0,0,0,.833-7.549,26.744,26.744,0,0,0-1.6-6.231c-1.928-5.063-6.5-8.861-10-11.155a.254.254,0,0,0-.2-.034,25.6,25.6,0,0,0-5.519,2.1.262.262,0,0,0-.129.161c-1.086,4.041-1.976,9.921-.046,14.984a28.679,28.679,0,0,0,2.791,5.554,17.581,17.581,0,0,0,3.329,3.839A8.173,8.173,0,0,0,2275.247,1574.093Zm-5.552-28.272c3.423,2.259,7.85,5.958,9.712,10.848a26.218,26.218,0,0,1,1.565,6.111,13.849,13.849,0,0,1-.792,7.277,5.823,5.823,0,0,1-3.168,3.2,4.925,4.925,0,0,1-1.763.321,7.68,7.68,0,0,1-4.817-2.037,22.214,22.214,0,0,1-5.97-9.183c-1.863-4.89-1.02-10.6.034-14.56a25,25,0,0,1,5.2-1.98Z" transform="translate(-2262.851 -1545.29)" fill="#112770"/>
            </g>
          </g>
          <g id="Grupo_165" data-name="Grupo 165" transform="translate(1.41 0.256)">
            <g id="Grupo_164" data-name="Grupo 164">
              <path id="Caminho_43" data-name="Caminho 43" d="M2667.777,1509.823a19.572,19.572,0,0,1,5.538-2.109c-.675-.444-1.3-.828-1.854-1.147a2.111,2.111,0,0,0-3.063,1.166C2668.2,1508.338,2667.986,1509.041,2667.777,1509.823Z" transform="translate(-2667.777 -1506.281)" fill="none"/>
            </g>
          </g>
          <g id="Grupo_167" data-name="Grupo 167" transform="translate(9.229 26.168)">
            <g id="Grupo_166" data-name="Grupo 166">
              <path id="Caminho_44" data-name="Caminho 44" d="M2252.828,2398.768l7.994-3.045a.732.732,0,0,0,.424-.946l-.422-1.109a.733.733,0,0,0-.945-.424l-7.994,3.045a.734.734,0,0,0-.425.946l.424,1.109A.733.733,0,0,0,2252.828,2398.768Z" transform="translate(-2251.411 -2393.196)" fill="#9f9eaa"/>
            </g>
          </g>
          <g id="Grupo_169" data-name="Grupo 169" transform="translate(8.947 25.886)">
            <g id="Grupo_168" data-name="Grupo 168">
              <path id="Caminho_45" data-name="Caminho 45" d="M2243.127,2389.712a.889.889,0,0,0,.319-.06l8.166-3.11a.9.9,0,0,0,.519-1.157l-.488-1.281a.9.9,0,0,0-1.157-.518l-8.165,3.109a.9.9,0,0,0-.52,1.158l.489,1.28a.889.889,0,0,0,.471.5A.907.907,0,0,0,2243.127,2389.712Zm7.678-5.673a.389.389,0,0,1,.361.247l.488,1.281a.386.386,0,0,1-.223.5l-8.166,3.11a.385.385,0,0,1-.5-.222l-.487-1.281a.384.384,0,0,1,.224-.5l8.166-3.111A.372.372,0,0,1,2250.8,2384.039Z" transform="translate(-2241.741 -2383.526)" fill="#112770"/>
            </g>
          </g>
          <g id="Grupo_171" data-name="Grupo 171" transform="translate(3.858 7.253)" opacity="0.3">
            <g id="Grupo_170" data-name="Grupo 170">
              <path id="Caminho_46" data-name="Caminho 46" d="M2276.927,1765.141c-1.687-.26-4.154-2.554-4.154-2.554l.041.145a14.111,14.111,0,0,0,5.538,4.994l7.725-2.943c.033-.073.066-.148.1-.224a12,12,0,0,0,.841-3.992l-.571-1.108-7.049-13.69-6,1.992-1.02,3.792s3.8,8,3.8,10.035S2277.837,1764.632,2276.927,1765.141Z" transform="translate(-2272.375 -1745.767)" fill="#112770"/>
            </g>
          </g>
          <g id="Grupo_173" data-name="Grupo 173" transform="translate(1.41 0.256)">
            <g id="Grupo_172" data-name="Grupo 172">
              <path id="Caminho_47" data-name="Caminho 47" d="M2667.777,1509.823a19.572,19.572,0,0,1,5.538-2.109c-.675-.444-1.3-.828-1.854-1.147a2.111,2.111,0,0,0-3.063,1.166C2668.2,1508.338,2667.986,1509.041,2667.777,1509.823Z" transform="translate(-2667.777 -1506.281)" fill="none"/>
            </g>
          </g>
          <g id="Grupo_174" data-name="Grupo 174" transform="translate(1.769 13.822)">
            <path id="Caminho_48" data-name="Caminho 48" d="M2304.132,1977.212a.256.256,0,0,0,.2-.1c1.263-1.686,3.879-3.4,7-4.589a16.909,16.909,0,0,1,8.056-1.269.256.256,0,0,0,.083-.505,17.429,17.429,0,0,0-8.321,1.3c-3.2,1.22-5.9,3-7.224,4.76a.255.255,0,0,0,.2.409Z" transform="translate(-2303.876 -1970.632)" fill="#112770"/>
          </g>
          <g id="Grupo_176" data-name="Grupo 176" transform="translate(9.145 26.084)" opacity="0.3">
            <g id="Grupo_175" data-name="Grupo 175">
              <path id="Caminho_49" data-name="Caminho 49" d="M2248.554,2394.163l.115.3.008,0,8.345-3.178a.438.438,0,0,1,.565.253l.517,1.356.188-.072a.442.442,0,0,0,.256-.57l-.63-1.653a.441.441,0,0,0-.57-.255l-8.538,3.252A.443.443,0,0,0,2248.554,2394.163Z" transform="translate(-2248.525 -2390.312)" fill="#112770"/>
            </g>
          </g>
        </g>
        <g id="Grupo_183" data-name="Grupo 183" transform="translate(31.414 29.449)">
          <g id="Grupo_178" data-name="Grupo 178" transform="translate(0.255 11.937)">
            <path id="Caminho_50" data-name="Caminho 50" d="M1738.456,2068.513a3.633,3.633,0,0,0,2.45-.791,3.486,3.486,0,0,0,1.081-2.709l-.51.038-.509.036a2.483,2.483,0,0,1-.736,1.866c-.674.575-1.787.691-3.31.346l-.226,1A7.98,7.98,0,0,0,1738.456,2068.513Z" transform="translate(-1736.695 -2065.013)" fill="#eeedee"/>
          </g>
          <g id="Grupo_179" data-name="Grupo 179" transform="translate(0.255 11.937)" opacity="0.3">
            <path id="Caminho_51" data-name="Caminho 51" d="M1738.456,2068.513a3.633,3.633,0,0,0,2.45-.791,3.486,3.486,0,0,0,1.081-2.709l-.51.038-.509.036a2.483,2.483,0,0,1-.736,1.866c-.674.575-1.787.691-3.31.346l-.226,1A7.98,7.98,0,0,0,1738.456,2068.513Z" transform="translate(-1736.695 -2065.013)" fill="#112770"/>
          </g>
          <g id="Grupo_180" data-name="Grupo 180" transform="translate(0 11.681)">
            <path id="Caminho_52" data-name="Caminho 52" d="M1729.978,2060.276a3.884,3.884,0,0,0,2.616-.853,3.759,3.759,0,0,0,1.17-2.921.255.255,0,0,0-.274-.236l-.51.038-.508.036a.255.255,0,0,0-.237.271,2.241,2.241,0,0,1-.646,1.656c-.609.519-1.648.617-3.088.291a.254.254,0,0,0-.306.192l-.226,1a.254.254,0,0,0,.193.305,8.261,8.261,0,0,0,1.816.224h0Zm3.278-3.481a3.117,3.117,0,0,1-1,2.24,3.392,3.392,0,0,1-2.282.729h0a7.46,7.46,0,0,1-1.454-.157l.113-.5a3.807,3.807,0,0,0,3.283-.454,2.583,2.583,0,0,0,.823-1.822Z" transform="translate(-1727.961 -2056.265)" fill="#112770"/>
          </g>
          <g id="Grupo_181" data-name="Grupo 181" transform="translate(2.519 0.193)">
            <rect id="Ret창ngulo_5339" data-name="Ret창ngulo 5339" width="2.505" height="11.808" rx="1.252" transform="translate(3.747 11.741) rotate(173.892)" fill="#fe3601"/>
          </g>
          <g id="Grupo_182" data-name="Grupo 182" transform="translate(2.326)">
            <path id="Caminho_53" data-name="Caminho 53" d="M1707.644,1668.84a.846.846,0,0,0,.1-.006h0l1.247-.133a.883.883,0,0,0,.782-.97l-1.124-10.5a.881.881,0,0,0-.969-.781l-1.248.133a.883.883,0,0,0-.782.97l1.124,10.5a.88.88,0,0,0,.874.787Zm.127-11.882a.368.368,0,0,1,.366.33l1.124,10.5a.371.371,0,0,1-.328.407l-1.247.133h0a.368.368,0,0,1-.406-.328l-1.124-10.5a.37.37,0,0,1,.328-.406l1.248-.133Z" transform="translate(-1705.641 -1656.447)" fill="#112770"/>
          </g>
        </g>
        <g id="Grupo_189" data-name="Grupo 189" transform="translate(0 30.839)">
          <g id="Grupo_184" data-name="Grupo 184" transform="translate(0.256 6.012)">
            <path id="Caminho_54" data-name="Caminho 54" d="M2817.115,1919.394a17.482,17.482,0,0,1-1.7-.617,8.679,8.679,0,0,1-2.455-1.492,3.1,3.1,0,0,1-1.146-2.453,6.058,6.058,0,0,1,1.6-3.827,6.578,6.578,0,0,1,1.212-1.044c.166-.109.27-.165.282-.171l.48.9a4.658,4.658,0,0,0-.713.512,5.876,5.876,0,0,0-.531.517,4.975,4.975,0,0,0-1.311,3.16c-.066,1.357,1.578,2.354,2.968,2.952.228.1.46.189.686.273" transform="translate(-2811.816 -1909.789)" fill="#fff"/>
          </g>
          <g id="Grupo_185" data-name="Grupo 185" transform="translate(0.256 6.012)" opacity="0.3">
            <path id="Caminho_55" data-name="Caminho 55" d="M2817.115,1919.394a17.482,17.482,0,0,1-1.7-.617,8.679,8.679,0,0,1-2.455-1.492,3.1,3.1,0,0,1-1.146-2.453,6.058,6.058,0,0,1,1.6-3.827,6.578,6.578,0,0,1,1.212-1.044c.166-.109.27-.165.282-.171l.48.9a4.658,4.658,0,0,0-.713.512,5.876,5.876,0,0,0-.531.517,4.975,4.975,0,0,0-1.311,3.16c-.066,1.357,1.578,2.354,2.968,2.952.228.1.46.189.686.273" transform="translate(-2811.816 -1909.789)" fill="#112770"/>
          </g>
          <g id="Grupo_186" data-name="Grupo 186" transform="translate(0 5.757)">
            <path id="Caminho_56" data-name="Caminho 56" d="M2808.623,1911.158a.256.256,0,0,0,.231-.366l-.619-1.289a.26.26,0,0,0-.142-.129c-.234-.086-.461-.177-.674-.269a7.769,7.769,0,0,1-1.965-1.15,1.98,1.98,0,0,1-.849-1.554,4.723,4.723,0,0,1,1.247-3,5.4,5.4,0,0,1,.506-.494,4.458,4.458,0,0,1,.668-.482.255.255,0,0,0,.124-.15.25.25,0,0,0-.021-.194l-.479-.9a.257.257,0,0,0-.346-.106c-.03.016-.139.076-.3.184a6.811,6.811,0,0,0-1.26,1.085,6.305,6.305,0,0,0-1.669,3.987,3.339,3.339,0,0,0,1.228,2.654,8.911,8.911,0,0,0,2.528,1.539,17.428,17.428,0,0,0,1.72.626A.239.239,0,0,0,2808.623,1911.158Zm-.805-1.341.316.657c-.388-.134-.758-.276-1.1-.424a8.407,8.407,0,0,1-2.382-1.444,2.857,2.857,0,0,1-1.064-2.254,5.805,5.805,0,0,1,1.537-3.667,6.3,6.3,0,0,1,1.164-1l.041-.027.242.454a5.586,5.586,0,0,0-.541.409,5.946,5.946,0,0,0-.554.541,5.221,5.221,0,0,0-1.377,3.318,2.452,2.452,0,0,0,1.026,1.967,8.261,8.261,0,0,0,2.1,1.231C2807.409,1909.658,2807.611,1909.739,2807.818,1909.817Z" transform="translate(-2803.069 -1901.042)" fill="#112770"/>
          </g>
          <g id="Grupo_187" data-name="Grupo 187" transform="translate(2.817 0.038)">
            <rect id="Ret창ngulo_5340" data-name="Ret창ngulo 5340" width="2.505" height="11.808" rx="1.252" transform="translate(1.16 7.689) rotate(-117.591)" fill="#fe3601"/>
          </g>
          <g id="Grupo_188" data-name="Grupo 188" transform="translate(2.779)">
            <path id="Caminho_57" data-name="Caminho 57" d="M2507.8,1711.764a.879.879,0,0,0,.407-.1l9.357-4.89a.882.882,0,0,0,.373-1.188l-.582-1.112a.88.88,0,0,0-1.188-.372l-9.357,4.89a.881.881,0,0,0-.372,1.188l.581,1.112a.885.885,0,0,0,.782.473Zm8.774-7.253a.378.378,0,0,1,.112.017.369.369,0,0,1,.217.181l.581,1.112a.37.37,0,0,1-.156.5l-9.356,4.89a.371.371,0,0,1-.5-.157l-.581-1.112h0a.369.369,0,0,1,.157-.5l9.357-4.89A.368.368,0,0,1,2516.578,1704.511Z" transform="translate(-2506.34 -1704)" fill="#112770"/>
          </g>
        </g>
        <g id="Grupo_226" data-name="Grupo 226" transform="translate(3.564 25.917)">
          <g id="Grupo_191" data-name="Grupo 191" transform="translate(10.131 19.757)" opacity="0.5">
            <g id="Grupo_190" data-name="Grupo 190" transform="translate(0)">
              <path id="Caminho_58" data-name="Caminho 58" d="M2390.655,2218.043q.142.373.295.725a18.266,18.266,0,0,1-.606-5.781.175.175,0,0,1,.3-.114,18.253,18.253,0,0,1,3.4,4.718c-.082-.242-.168-.488-.263-.737a16.766,16.766,0,0,0-3.345-4.949.315.315,0,0,0-.572.217A16.769,16.769,0,0,0,2390.655,2218.043Z" transform="translate(-2389.852 -2211.771)" fill="#fff"/>
            </g>
          </g>
          <g id="Grupo_192" data-name="Grupo 192" transform="translate(17.387 17.626)">
            <path id="Caminho_59" data-name="Caminho 59" d="M2267.605,2139.349a.269.269,0,0,0,.07-.01h0a.256.256,0,0,0-.141-.492.256.256,0,0,0,.071.5Z" transform="translate(-2267.35 -2138.838)" fill="#112770"/>
          </g>
          <g id="Grupo_193" data-name="Grupo 193" transform="translate(29.981 11.452)" opacity="0.3">
            <path id="Caminho_60" data-name="Caminho 60" d="M1850.252,1927.511c.033.062.068.122.1.182C1850.322,1927.63,1850.288,1927.57,1850.252,1927.511Z" transform="translate(-1850.252 -1927.511)" fill="#112770"/>
          </g>
          <g id="Grupo_200" data-name="Grupo 200" transform="translate(20.829 5.03)">
            <g id="Grupo_194" data-name="Grupo 194" transform="translate(0.257 0.257)">
              <path id="Caminho_61" data-name="Caminho 61" d="M1746.349,1717.712a20.278,20.278,0,0,1-7.994-1.064c-3.681-1.441,3.475,8.2,3.475,8.2s4.992.623,7.2-.778S1746.349,1717.712,1746.349,1717.712Z" transform="translate(-1737.303 -1716.502)" fill="#fff"/>
            </g>
            <g id="Grupo_195" data-name="Grupo 195" transform="translate(0.257 0.257)" opacity="0.3">
              <path id="Caminho_62" data-name="Caminho 62" d="M1741.832,1724.852s4.992.622,7.2-.777c1.033-.656.51-2.094-.338-3.436-.023.016-.047.032-.071.048-2.206,1.4-7.2.778-7.2.778s-1.921-2.588-3.26-4.881C1734.94,1715.565,1741.832,1724.852,1741.832,1724.852Z" transform="translate(-1737.305 -1716.506)" fill="#112770"/>
            </g>
            <g id="Grupo_196" data-name="Grupo 196" transform="translate(0)">
              <path id="Caminho_63" data-name="Caminho 63" d="M1735.847,1716.715l.272,0a9.027,9.027,0,0,0,4.56-.954,1.42,1.42,0,0,0,.679-1.083c.1-.874-.434-2.1-1.587-3.643a21.721,21.721,0,0,0-1.727-2.027.254.254,0,0,0-.2-.075h0a20.336,20.336,0,0,1-2.589.007,17.728,17.728,0,0,1-5.289-1.054c-.228-.089-.923-.361-1.259.077-.264.346-.168.964.31,2.007a25.081,25.081,0,0,0,1.582,2.8c1.2,1.9,2.53,3.688,2.543,3.706a.255.255,0,0,0,.174.1A22.418,22.418,0,0,0,1735.847,1716.715Zm1.914-7.265a21.8,21.8,0,0,1,1.6,1.894c1.055,1.413,1.568,2.545,1.485,3.274a.918.918,0,0,1-.446.709c-1.928,1.224-6.189.831-6.922.752-.281-.383-1.416-1.944-2.458-3.588a24.49,24.49,0,0,1-1.547-2.738c-.536-1.167-.4-1.439-.368-1.482s.22-.086.665.088a18.228,18.228,0,0,0,5.456,1.09A21.6,21.6,0,0,0,1737.761,1709.45Z" transform="translate(-1728.559 -1707.719)" fill="#112770"/>
            </g>
            <g id="Grupo_197" data-name="Grupo 197" transform="translate(7.82 0.732)">
              <path id="Caminho_64" data-name="Caminho 64" d="M1665.385,1737.787c.127-1.382.073-4.636-2.952-4.942-3.471-.352-3.924.92-4.04,1.955a5.6,5.6,0,0,0,1.164,3.45c.69.883.844,2.722,2.53,3.105S1665.154,1740.309,1665.385,1737.787Z" transform="translate(-1658.38 -1732.785)" fill="#fff"/>
            </g>
            <g id="Grupo_198" data-name="Grupo 198" transform="translate(9.257 4.163)" opacity="0.3">
              <path id="Caminho_65" data-name="Caminho 65" d="M1658.38,1852.662c.5.949.816,2.365,2.272,2.7,1.687.383,3.065-1.047,3.3-3.567a8.187,8.187,0,0,0,0-1.572c-.007.106-.015.206-.025.3-.259,2.521-1.8,3.951-3.678,3.568A2.7,2.7,0,0,1,1658.38,1852.662Z" transform="translate(-1658.38 -1850.219)" fill="#112770"/>
            </g>
            <g id="Grupo_199" data-name="Grupo 199" transform="translate(7.564 0.478)">
              <path id="Caminho_66" data-name="Caminho 66" d="M1654.146,1733.207a2.409,2.409,0,0,0,1.432-.472,4.588,4.588,0,0,0,1.583-3.389h0a7.213,7.213,0,0,0-.309-2.986,3.489,3.489,0,0,0-.976-1.467,3.354,3.354,0,0,0-1.9-.768c-3.573-.362-4.186.975-4.319,2.181a5.853,5.853,0,0,0,1.218,3.636,4.816,4.816,0,0,1,.51.958,3.268,3.268,0,0,0,2.164,2.239A2.671,2.671,0,0,0,1654.146,1733.207Zm-1.278-8.631q.487,0,1.061.058a2.73,2.73,0,0,1,2.444,1.9,6.7,6.7,0,0,1,.279,2.763h0a4.158,4.158,0,0,1-1.373,3.023,1.936,1.936,0,0,1-1.612.319c-1.046-.237-1.434-1.108-1.811-1.949a5.135,5.135,0,0,0-.575-1.064,5.369,5.369,0,0,1-1.111-3.264,1.726,1.726,0,0,1,.656-1.319A3.546,3.546,0,0,1,1652.868,1724.575Z" transform="translate(-1649.645 -1724.064)" fill="#112770"/>
            </g>
          </g>
          <g id="Grupo_201" data-name="Grupo 201" transform="translate(0.256 0.256)">
            <path id="Caminho_67" data-name="Caminho 67" d="M1521.64,1556.057a2.307,2.307,0,0,0,1.643.829,4.108,4.108,0,0,0,1.61-.228h0l.14-.048c.07-.025.141-.052.211-.08l.015.045a19.648,19.648,0,0,0,2.283,4.8c1.84,2.658,1.636,11.4,8.484,10.12,1,5.569,3.867,7.326,3.956,7.38h0a3.72,3.72,0,0,0,3.46.446,6.241,6.241,0,0,0,.982-.416,9.132,9.132,0,0,0,1.386-.9c.415-.324.789-.639,1.126-.946.239,1.771-.377,2.256,1.407,4.508,2.147,2.709,5.319,3.54,9.459,3.131a2.715,2.715,0,0,0,2.441-1.793,4.538,4.538,0,0,0-2.343-5.255c-1.238-.649-1.709-2.465-1.887-3.852q-.107-.83-.266-1.653a24.4,24.4,0,0,0-1.427-4.749,35.936,35.936,0,0,0-5.123-8.667c-.266-.329-.5-.6-.7-.826-.387-.439-.617-.665-.617-.665l-4.913-8.467-2.594-4.471-13.245.313s-3.049,3.6-4.724,5.953a11.158,11.158,0,0,0-.973,1.546.123.123,0,0,0-.005.012c-.014.032-.028.064-.041.1A3.774,3.774,0,0,0,1521.64,1556.057Z" transform="translate(-1520.995 -1544.297)" fill="#fff"/>
          </g>
          <g id="Grupo_202" data-name="Grupo 202">
            <path id="Caminho_68" data-name="Caminho 68" d="M1547.392,1576.557q.913,0,1.925-.1a3.172,3.172,0,0,0,1.915-.817,3.05,3.05,0,0,0,.882-1.656,4.5,4.5,0,0,0-.419-2.8,5.014,5.014,0,0,0-2.186-2.26c-1.137-.6-1.581-2.318-1.753-3.658-.073-.563-.163-1.124-.268-1.669a24.7,24.7,0,0,0-1.443-4.8,37.012,37.012,0,0,0-4.267-7.572,24.5,24.5,0,0,0-2.2-2.645l-7.49-12.908a.256.256,0,0,0-.227-.127l-13.245.312a.255.255,0,0,0-.189.091c-.031.036-3.075,3.633-4.738,5.97a11.047,11.047,0,0,0-1,1.588.2.2,0,0,0-.009.021l-.04.094a5.089,5.089,0,0,0-.41,2.218,3.205,3.205,0,0,0,.7,1.885h0a2.533,2.533,0,0,0,1.734.913,4.354,4.354,0,0,0,1.91-.271,19.53,19.53,0,0,0,2.246,4.658,12.5,12.5,0,0,1,1.217,3.193,16.072,16.072,0,0,0,2.183,5.155,4.916,4.916,0,0,0,2.125,1.67,5.648,5.648,0,0,0,2.966.25c1.041,5.377,3.814,7.172,4.021,7.3a3.816,3.816,0,0,0,2.594.7,6.851,6.851,0,0,0,3.533-1.587c.265-.207.521-.416.764-.625.015.236.017.45.02.66.011.979.02,1.752,1.392,3.484a8.223,8.223,0,0,0,4.106,2.82A12.139,12.139,0,0,0,1547.392,1576.557Zm-15.672-40.492,7.431,12.806a.257.257,0,0,0,.042.054,23.817,23.817,0,0,1,2.18,2.619,36.483,36.483,0,0,1,4.2,7.455,24.148,24.148,0,0,1,1.413,4.7c.1.534.193,1.084.264,1.636.188,1.46.691,3.348,2.023,4.046a4.394,4.394,0,0,1,2.341,4.5,2.479,2.479,0,0,1-2.346,2.062c-4.321.426-7.255-.539-9.234-3.036-1.264-1.595-1.271-2.223-1.281-3.173a9.316,9.316,0,0,0-.073-1.21.255.255,0,0,0-.425-.154c-.341.31-.715.625-1.111.933-2.817,2.2-4.667,1.488-5.521.869l-.007,0-.016-.01a6.2,6.2,0,0,1-1.56-1.554,13.266,13.266,0,0,1-2.274-5.65.255.255,0,0,0-.3-.205,4.529,4.529,0,0,1-4.842-1.685,15.722,15.722,0,0,1-2.1-4.99,12.5,12.5,0,0,0-1.287-3.341,19.4,19.4,0,0,1-2.265-4.779.256.256,0,0,0-.338-.157,4.515,4.515,0,0,1-1.615.347,2.11,2.11,0,0,1-1.7-.746h0a3.532,3.532,0,0,1-.208-3.58c.013-.031.026-.062.039-.092l0,0h0a10.8,10.8,0,0,1,.949-1.506c1.506-2.117,4.161-5.283,4.637-5.848Zm-18.561,7.649v0Z" transform="translate(-1512.225 -1535.55)" fill="#112770"/>
          </g>
          <g id="Grupo_203" data-name="Grupo 203" transform="translate(0.255 0.256)" opacity="0.3">
            <path id="Caminho_69" data-name="Caminho 69" d="M2143.181,1556.057a2.3,2.3,0,0,0,1.642.829l1.636-.258,2.753-1.635c-.533-2.15-.846-6.493,5.76-5.474,4.286.661,7.1.188,8.853-.463a17.428,17.428,0,0,0-1.824-1.891l.956-1.08-1.037-1.787-13.246.313s-3.047,3.6-4.723,5.953a11.246,11.246,0,0,0-.973,1.546.12.12,0,0,0,0,.012c-.014.032-.027.064-.041.1A3.772,3.772,0,0,0,2143.181,1556.057Z" transform="translate(-2142.536 -1544.297)" fill="#112770"/>
          </g>
          <g id="Grupo_204" data-name="Grupo 204" transform="translate(4.129 10.91)" opacity="0.3">
            <path id="Caminho_70" data-name="Caminho 70" d="M1872.759,1910.69c.116-.038.234-.081.352-.128a19.712,19.712,0,0,0,2.3,4.844c1.84,2.658,1.635,11.4,8.484,10.121,1,5.569,3.867,7.326,3.956,7.38h0l.121.084c1.875,1.253,4.121.277,5.707-.96,3.557-2.774,4.083-4.939,4.32-6a1.922,1.922,0,0,0-2.2-2.4c-1.789.051-5.729,3.373-5.729,3.373l-.051.045a3.163,3.163,0,0,1-5.184-1.739c-.241-1.172-.347-2.057-.347-2.057-1.807.287-1.926-.542-3.766-2.843s-2.965-8.025-3.877-8.71-1.216-2.722-1.216-2.722Z" transform="translate(-1872.759 -1908.984)" fill="#112770"/>
          </g>
          <g id="Grupo_205" data-name="Grupo 205" transform="translate(0.442 6.265)">
            <path id="Caminho_71" data-name="Caminho 71" d="M2814.276,1752.049a.256.256,0,0,0,.232-.149,10.874,10.874,0,0,1,.949-1.5.256.256,0,0,0-.4-.313,6.549,6.549,0,0,0-1.012,1.609.256.256,0,0,0,.234.358Z" transform="translate(-2814.02 -1749.992)" fill="#112770"/>
          </g>
          <g id="Grupo_206" data-name="Grupo 206" transform="translate(12.025 14.955)">
            <path id="Caminho_72" data-name="Caminho 72" d="M2022.245,2050.286a13.853,13.853,0,0,1,3.015-1.688,7.633,7.633,0,0,1,3.783-.619,5.5,5.5,0,0,1,1.36.349,3.808,3.808,0,0,1,1.363,1.075,11.3,11.3,0,0,1,1.667,2.977,29.865,29.865,0,0,1,1.038,3.049c.058.2.164.974.552.7.157-.114.094-.289.055-.441q-.087-.338-.18-.673a25.933,25.933,0,0,0-1.042-3.054,11.109,11.109,0,0,0-1.694-2.937,4.108,4.108,0,0,0-1.541-1.182,5.956,5.956,0,0,0-2.527-.409,9.692,9.692,0,0,0-5.828,2.561c-.051.046-.166.12-.179.2A.1.1,0,0,0,2022.245,2050.286Z" transform="translate(-2022.084 -2047.422)" fill="#112770"/>
          </g>
          <g id="Grupo_207" data-name="Grupo 207" transform="translate(23.527 34.864)" opacity="0.3">
            <path id="Caminho_73" data-name="Caminho 73" d="M2069.146,2728.924c.054-.026.108-.053.163-.083C2069.254,2728.869,2069.2,2728.9,2069.146,2728.924Z" transform="translate(-2069.146 -2728.841)" fill="#112770"/>
          </g>
          <g id="Grupo_208" data-name="Grupo 208" transform="translate(22.975 35.129)" opacity="0.3">
            <path id="Caminho_74" data-name="Caminho 74" d="M2088.644,2737.986c.048-.018.1-.037.145-.057C2088.74,2737.948,2088.692,2737.968,2088.644,2737.986Z" transform="translate(-2088.644 -2737.929)" fill="#112770"/>
          </g>
          <g id="Grupo_209" data-name="Grupo 209" transform="translate(19.62 35.072)" opacity="0.3">
            <path id="Caminho_75" data-name="Caminho 75" d="M2204,2736.031l-.133-.07Z" transform="translate(-2203.864 -2735.961)" fill="#112770"/>
          </g>
          <g id="Grupo_210" data-name="Grupo 210" transform="translate(19.367 34.918)" opacity="0.3">
            <path id="Caminho_76" data-name="Caminho 76" d="M2208.4,2730.7c.082.055.167.105.253.154C2208.571,2730.8,2208.486,2730.75,2208.4,2730.7Z" transform="translate(-2208.404 -2730.696)" fill="#112770"/>
          </g>
          <g id="Grupo_211" data-name="Grupo 211" transform="translate(18.05 25.305)">
            <path id="Caminho_77" data-name="Caminho 77" d="M1866.421,2412.138a6.488,6.488,0,0,0,3.9-1.6,13.927,13.927,0,0,0,3.467-3.714,7.715,7.715,0,0,0,.945-2.432,2.221,2.221,0,0,0-.4-1.916,2.415,2.415,0,0,0-2.054-.792,8.288,8.288,0,0,0-3.674,1.75c-1.2.835-2.2,1.675-2.213,1.683l0,0c-2.089,1.826-3.181,3.346-3.247,4.519a1.615,1.615,0,0,0,.42,1.222,3.812,3.812,0,0,0,2.712,1.277C1866.32,2412.137,1866.371,2412.138,1866.421,2412.138Zm5.967-9.947a1.918,1.918,0,0,1,1.546.609,1.713,1.713,0,0,1,.3,1.479c-.226,1.005-.7,3.1-4.228,5.853-3.381,2.637-5.369,1.146-6.067.382a1.1,1.1,0,0,1-.287-.848c.04-.708.605-2.006,3.072-4.161.045-.038,1.013-.848,2.176-1.653a8.044,8.044,0,0,1,3.394-1.659Z" transform="translate(-1863.135 -2401.68)" fill="#112770"/>
          </g>
          <g id="Grupo_212" data-name="Grupo 212" transform="translate(20.313 23.155)">
            <path id="Caminho_78" data-name="Caminho 78" d="M1874.659,2331.817a4.646,4.646,0,0,0-4.725-3.73,5.838,5.838,0,0,0-3.7,1.854,8.036,8.036,0,0,0-.7.8c-.054.07-.24.252-.194.349.065.134.187-.019.237-.071a10.465,10.465,0,0,1,1.58-1.326,5.2,5.2,0,0,1,3.292-1.032,4.319,4.319,0,0,1,2.558,1.2,4.574,4.574,0,0,1,1,1.572c.047.122.091.248.126.375a.709.709,0,0,0,.064.2A.257.257,0,0,0,1874.659,2331.817Z" transform="translate(-1865.333 -2328.082)" fill="#112770"/>
          </g>
          <g id="Grupo_213" data-name="Grupo 213" transform="translate(14.992 20.621)">
            <path id="Caminho_79" data-name="Caminho 79" d="M2048.913,2248.438a.248.248,0,0,0,.045,0,.256.256,0,0,0,.207-.3,3.513,3.513,0,0,1,.966-2.756,10.977,10.977,0,0,1,7.526-3.521.255.255,0,1,0,0-.511,11.482,11.482,0,0,0-7.918,3.7,3.915,3.915,0,0,0-1.078,3.174A.256.256,0,0,0,2048.913,2248.438Z" transform="translate(-2048.616 -2241.35)" fill="#112770"/>
          </g>
          <g id="Grupo_214" data-name="Grupo 214" transform="translate(0.391 7.822)">
            <path id="Caminho_80" data-name="Caminho 80" d="M2847.733,1803.9a.256.256,0,0,0,.24-.167l0-.009v0c.011-.026.021-.052.035-.079a.256.256,0,0,0-.464-.214c-.017.037-.033.074-.048.11a.176.176,0,0,1-.006.02.256.256,0,0,0,.24.344Z" transform="translate(-2847.477 -1803.28)" fill="#112770"/>
          </g>
          <g id="Grupo_215" data-name="Grupo 215" transform="translate(28.834 27.845)">
            <path id="Caminho_81" data-name="Caminho 81" d="M1674.713,2490.168a9.372,9.372,0,0,0,4.447-1.094.256.256,0,0,0-.242-.45,9.085,9.085,0,0,1-5.761.91.256.256,0,1,0-.079.506A10.648,10.648,0,0,0,1674.713,2490.168Z" transform="translate(-1672.862 -2488.594)" fill="#112770"/>
          </g>
          <g id="Grupo_216" data-name="Grupo 216" transform="translate(24.157 26.513)">
            <path id="Caminho_82" data-name="Caminho 82" d="M1882.6,2445.978a.255.255,0,0,0,.082-.5,13.9,13.9,0,0,1-4.522-2.384.255.255,0,1,0-.344.377,14.386,14.386,0,0,0,4.7,2.49A.244.244,0,0,0,1882.6,2445.978Z" transform="translate(-1877.734 -2443.03)" fill="#112770"/>
          </g>
          <g id="Grupo_217" data-name="Grupo 217" transform="translate(22.252 27.855)">
            <path id="Caminho_83" data-name="Caminho 83" d="M1921.294,2492.5a.255.255,0,0,0,.078-.5c-1.155-.37-3.982-1.4-5.294-2.962a.255.255,0,1,0-.391.328c1.347,1.6,4.042,2.645,5.528,3.121A.233.233,0,0,0,1921.294,2492.5Z" transform="translate(-1915.627 -2488.945)" fill="#112770"/>
          </g>
          <g id="Grupo_218" data-name="Grupo 218" transform="translate(20.534 29.296)">
            <path id="Caminho_84" data-name="Caminho 84" d="M1977.029,2542.166a.256.256,0,0,0,.08-.5c-1.249-.415-4.271-1.563-5.369-3.272a.256.256,0,0,0-.43.276c1.143,1.78,4.023,2.945,5.638,3.481A.26.26,0,0,0,1977.029,2542.166Z" transform="translate(-1971.27 -2538.277)" fill="#112770"/>
          </g>
          <g id="Grupo_219" data-name="Grupo 219" transform="translate(19.005 30.959)">
            <path id="Caminho_85" data-name="Caminho 85" d="M2046.891,2599.034a.256.256,0,0,0,.088-.5c-1.431-.526-3.963-1.644-4.84-3.219a.256.256,0,0,0-.447.25c.909,1.635,3.281,2.778,5.111,3.45A.26.26,0,0,0,2046.891,2599.034Z" transform="translate(-2041.66 -2595.188)" fill="#112770"/>
          </g>
          <g id="Grupo_220" data-name="Grupo 220" transform="translate(26.2 30.407)" opacity="0.3">
            <path id="Caminho_86" data-name="Caminho 86" d="M1527.71,2578.894c.24,1.771-.376,2.257,1.408,4.508,2.147,2.708,5.32,3.54,9.46,3.131a2.714,2.714,0,0,0,2.44-1.792c-11.715.443-11.083-4.659-11.083-4.659v-3.795A12.027,12.027,0,0,1,1527.71,2578.894Z" transform="translate(-1527.71 -2576.287)" fill="#112770"/>
          </g>
          <g id="Grupo_221" data-name="Grupo 221" transform="translate(19.98 13.857)" opacity="0.3">
            <path id="Caminho_87" data-name="Caminho 87" d="M1905.815,2011.334c1.726.563,2.822,1.941,4.834,7.865.025.075.049.152.072.229a3.867,3.867,0,0,1,.571.015,4.543,4.543,0,0,1,1.969.656,41.484,41.484,0,0,0-1.71-4.25,3.441,3.441,0,0,1,1.7-4.58,5.844,5.844,0,0,0,1.048-.593c-.266-.329-.5-.6-.7-.826Z" transform="translate(-1905.815 -2009.85)" fill="#112770"/>
          </g>
          <g id="Grupo_225" data-name="Grupo 225" transform="translate(0.001 3.967)">
            <g id="Grupo_222" data-name="Grupo 222" transform="translate(0.255 0.256)">
              <path id="Caminho_88" data-name="Caminho 88" d="M2554.6,1687.884c1.263,1.52,3.772.853,6.008-1s3.35-4.2,2.088-5.722-4.262-1.442-6.5.415S2553.337,1686.364,2554.6,1687.884Z" transform="translate(-2553.955 -1680.092)" fill="#fff"/>
            </g>
            <g id="Grupo_223" data-name="Grupo 223" transform="translate(0.263 1.358)" opacity="0.3">
              <path id="Caminho_89" data-name="Caminho 89" d="M2553.955,1722.818a2.931,2.931,0,0,0,.637,1.708c1.262,1.52,3.772.853,6.006-1,2.218-1.843,3.333-4.164,2.118-5.685-.039,1.326-1.054,2.862-2.616,4.16-2.235,1.858-4.744,2.524-6.007,1C2554.045,1722.942,2554,1722.88,2553.955,1722.818Z" transform="translate(-2553.955 -1717.836)" fill="#112770"/>
            </g>
            <g id="Grupo_224" data-name="Grupo 224">
              <path id="Caminho_90" data-name="Caminho 90" d="M2547.944,1680.49a4.145,4.145,0,0,0,.795-.082,9.382,9.382,0,0,0,5.913-4.913,2.822,2.822,0,0,0-.31-2.992,3.69,3.69,0,0,0-3.094-1.151,6.732,6.732,0,0,0-5.96,4.952,3.688,3.688,0,0,0,.565,3.252h0A2.6,2.6,0,0,0,2547.944,1680.49Zm3.576-8.633a3.089,3.089,0,0,1,2.429.974c1.242,1.494-.137,3.77-2.054,5.363s-4.406,2.531-5.647,1.037h0a3.19,3.19,0,0,1-.461-2.807,6.221,6.221,0,0,1,5.489-4.56C2551.357,1671.859,2551.439,1671.857,2551.519,1671.857Zm-5.469,7.537Z" transform="translate(-2545.151 -1671.346)" fill="#112770"/>
            </g>
          </g>
        </g>
        <g id="Grupo_243" data-name="Grupo 243" transform="translate(8.743 27.253)">
          <g id="Grupo_227" data-name="Grupo 227" transform="translate(14.542 0.256)">
            <path id="Caminho_91" data-name="Caminho 91" d="M2035.712,1595.434l1.764-1.033a20.017,20.017,0,0,0-3.686-4.39l-1.354,1.532A18.219,18.219,0,0,1,2035.712,1595.434Z" transform="translate(-2032.435 -1590.011)" fill="#fff"/>
          </g>
          <g id="Grupo_228" data-name="Grupo 228" transform="translate(7.214 0.708)">
            <path id="Caminho_92" data-name="Caminho 92" d="M2252.287,1611.771v0l1.9-.759a11.973,11.973,0,0,0-5.08-5.505l-.987,1.791a10.047,10.047,0,0,1,3.2,2.844A8.615,8.615,0,0,1,2252.287,1611.771Z" transform="translate(-2248.117 -1605.504)" fill="#fff"/>
          </g>
          <g id="Grupo_229" data-name="Grupo 229" transform="translate(14.286)">
            <path id="Caminho_93" data-name="Caminho 93" d="M2027.22,1587.2a.256.256,0,0,0,.129-.035l1.764-1.033a.255.255,0,0,0,.091-.349,20.268,20.268,0,0,0-3.737-4.452.256.256,0,0,0-.361.022l-1.354,1.531a.257.257,0,0,0,.022.361,18.114,18.114,0,0,1,3.226,3.83A.255.255,0,0,0,2027.22,1587.2Zm1.41-1.378-1.325.776a18.976,18.976,0,0,0-3-3.566l1.017-1.148A20.169,20.169,0,0,1,2028.63,1585.821Z" transform="translate(-2023.688 -1581.264)" fill="#112770"/>
          </g>
          <g id="Grupo_230" data-name="Grupo 230" transform="translate(7.213 0.708)" opacity="0.3">
            <path id="Caminho_94" data-name="Caminho 94" d="M2248.117,1607.294a10.026,10.026,0,0,1,3.2,2.844,8.728,8.728,0,0,1,.965,1.63l1.9-.759c-.01-.026-.06-.148-.155-.345l-.938.375a8.692,8.692,0,0,0-.963-1.63,10.042,10.042,0,0,0-3.206-2.844l.49-.887c-.1-.06-.2-.118-.307-.176Z" transform="translate(-2248.117 -1605.503)" fill="#112770"/>
          </g>
          <g id="Grupo_231" data-name="Grupo 231" transform="translate(14.541 0.256)" opacity="0.3">
            <path id="Caminho_95" data-name="Caminho 95" d="M2032.433,1591.543a18.247,18.247,0,0,1,3.277,3.891l1.764-1.033c-.009-.015-.048-.081-.115-.189l-.844.494a18.282,18.282,0,0,0-3.277-3.892l.64-.723-.09-.08Z" transform="translate(-2032.433 -1590.011)" fill="#112770"/>
          </g>
          <g id="Grupo_232" data-name="Grupo 232" transform="translate(6.957 0.562)">
            <path id="Caminho_96" data-name="Caminho 96" d="M2243.793,1607.277a.254.254,0,0,0,.1-.019.25.25,0,0,0,.036-.018l1.86-.744a.256.256,0,0,0,.143-.332,12.259,12.259,0,0,0-5.195-5.634.256.256,0,0,0-.347.1l-.987,1.79a.251.251,0,0,0-.022.194.256.256,0,0,0,.122.153,9.8,9.8,0,0,1,3.122,2.771,8.489,8.489,0,0,1,.935,1.579A.257.257,0,0,0,2243.793,1607.277Zm1.557-1.156-1.428.57a9.666,9.666,0,0,0-.889-1.454,10.358,10.358,0,0,0-3.065-2.789l.741-1.344A11.844,11.844,0,0,1,2245.35,1606.12Z" transform="translate(-2239.367 -1600.499)" fill="#112770"/>
          </g>
          <g id="Grupo_233" data-name="Grupo 233" transform="translate(9.854 4.806)">
            <path id="Caminho_97" data-name="Caminho 97" d="M1914.406,1748.738l1.959,3.6a1.767,1.767,0,0,0,1.877.891l8.434-1.572a.969.969,0,0,0,.791-1h0a.963.963,0,0,0-.144-.46l-2.219-3.588a1.769,1.769,0,0,0-1.828-.808l-8.2,1.528a.97.97,0,0,0-.673,1.416Z" transform="translate(-1914.288 -1745.764)" fill="#fff"/>
          </g>
          <g id="Grupo_234" data-name="Grupo 234" transform="translate(9.539 6.901)">
            <path id="Caminho_98" data-name="Caminho 98" d="M1914.5,1817.482a5.261,5.261,0,0,0-.294,2.862l1.959,3.594a1.767,1.767,0,0,0,1.876.892l8.434-1.572c.669-.125,1.183-2.3,1.11-2.985" transform="translate(-1914.088 -1817.482)" fill="#fff"/>
          </g>
          <g id="Grupo_235" data-name="Grupo 235" transform="translate(9.539 6.901)" opacity="0.3">
            <path id="Caminho_99" data-name="Caminho 99" d="M1914.206,1820.34l1.959,3.595a1.768,1.768,0,0,0,1.877.892l8.433-1.572c.668-.125,1.182-2.3,1.11-2.984a.969.969,0,0,1-.792,1l-8.434,1.572a1.768,1.768,0,0,1-1.876-.892l-1.959-3.6a.961.961,0,0,1-.024-.879h0A5.282,5.282,0,0,0,1914.206,1820.34Z" transform="translate(-1914.092 -1817.478)" fill="#112770"/>
          </g>
          <g id="Grupo_236" data-name="Grupo 236" transform="translate(9.597 4.55)">
            <path id="Caminho_100" data-name="Caminho 100" d="M1909.444,1745.014a2.055,2.055,0,0,0,.374-.035l8.434-1.572a1.225,1.225,0,0,0,.817-1.848l-2.219-3.589a2.024,2.024,0,0,0-2.092-.925l-8.2,1.528a1.225,1.225,0,0,0-.851,1.79l1.959,3.595A2.017,2.017,0,0,0,1909.444,1745.014Zm.28-.537a1.508,1.508,0,0,1-1.6-.763l-1.96-3.594a.714.714,0,0,1,.5-1.043l8.2-1.528a1.521,1.521,0,0,1,1.563.691l2.219,3.589a.714.714,0,0,1-.476,1.077l-8.434,1.572Z" transform="translate(-1905.56 -1737.011)" fill="#112770"/>
          </g>
          <g id="Grupo_237" data-name="Grupo 237" transform="translate(9.283 6.646)">
            <path id="Caminho_101" data-name="Caminho 101" d="M1909.23,1816.623a2.057,2.057,0,0,0,.374-.034l8.434-1.572c.4-.074.75-.565,1.03-1.457a5.434,5.434,0,0,0,.287-1.806.255.255,0,0,0-.508.054,5.018,5.018,0,0,1-.266,1.6c-.262.832-.531,1.088-.637,1.109l-8.433,1.572a1.508,1.508,0,0,1-1.605-.763l-1.959-3.594a2.635,2.635,0,0,1-.021-1.318,5.782,5.782,0,0,1,.321-1.31.256.256,0,0,0-.461-.223,6.247,6.247,0,0,0-.366,1.459,2.9,2.9,0,0,0,.078,1.637l1.959,3.594A2.016,2.016,0,0,0,1909.23,1816.623Z" transform="translate(-1905.35 -1808.733)" fill="#112770"/>
          </g>
          <g id="Grupo_238" data-name="Grupo 238" transform="translate(0.256 9.526)">
            <path id="Caminho_102" data-name="Caminho 102" d="M2336.3,1913.1a1.023,1.023,0,0,0,1.685.395c2.558-2.51,6.45-3.729,8.165-4.168a.725.725,0,0,0,.529-.854l-.126-.583a.724.724,0,0,0-.886-.55,26.176,26.176,0,0,0-3.789,1.283,20.627,20.627,0,0,0-2.825,1.465,14.676,14.676,0,0,0-2.5,1.952A1.018,1.018,0,0,0,2336.3,1913.1Z" transform="translate(-2336.24 -1907.32)" fill="#fff"/>
          </g>
          <g id="Grupo_239" data-name="Grupo 239" transform="translate(0.269 9.61)" opacity="0.3">
            <path id="Caminho_103" data-name="Caminho 103" d="M2336.24,1915.545a1.014,1.014,0,0,0,1.727.732c2.558-2.51,6.45-3.729,8.165-4.168a.726.726,0,0,0,.529-.854l-.127-.583a.72.72,0,0,0-.371-.489l.072.339a.727.727,0,0,1-.513.854,22.071,22.071,0,0,0-4.832,1.9,1.439,1.439,0,0,1-1.857-.409h0a14.67,14.67,0,0,0-2.5,1.952A.963.963,0,0,0,2336.24,1915.545Z" transform="translate(-2336.24 -1910.183)" fill="#112770"/>
          </g>
          <g id="Grupo_240" data-name="Grupo 240" transform="translate(0 9.27)">
            <path id="Caminho_104" data-name="Caminho 104" d="M2328.762,1905.543a1.276,1.276,0,0,0,.9-.368c2.542-2.494,6.476-3.7,8.051-4.1a.976.976,0,0,0,.713-1.156l-.125-.583a.98.98,0,0,0-1.2-.743,26.378,26.378,0,0,0-3.827,1.3,17.5,17.5,0,0,0-5.407,3.469,1.28,1.28,0,0,0,.9,2.187Zm8.578-6.473a.469.469,0,0,1,.457.371l.126.583a.468.468,0,0,1-.342.553,24.288,24.288,0,0,0-3.807,1.321,15.186,15.186,0,0,0-4.474,2.912h0a.764.764,0,0,1-1.031.04.772.772,0,0,1-.273-.559.748.748,0,0,1,.226-.571,16.983,16.983,0,0,1,5.251-3.364,25.789,25.789,0,0,1,3.752-1.271A.445.445,0,0,1,2337.341,1899.071Z" transform="translate(-2327.484 -1898.559)" fill="#112770"/>
          </g>
          <ellipse id="Elipse_10" data-name="Elipse 10" cx="1.408" cy="1.194" rx="1.408" ry="1.194" transform="translate(16.377 9.674) rotate(-120)" fill="#1ba3fc"/>
          <ellipse id="Elipse_11" data-name="Elipse 11" cx="1.408" cy="1.194" rx="1.408" ry="1.194" transform="translate(16.377 9.674) rotate(-120)" fill="#1ba3fc"/>
          <path id="Caminho_105" data-name="Caminho 105" d="M2088.262,1825.621a1.316,1.316,0,0,0,1.739.624,1.188,1.188,0,0,0,.537-1.19,1.044,1.044,0,0,1-.422.461,1.315,1.315,0,0,1-1.739-.622,1.618,1.618,0,0,1-.207-.626A1.468,1.468,0,0,0,2088.262,1825.621Z" transform="translate(-2072.589 -1817.167)" fill="#112770" opacity="0.3"/>
          <ellipse id="Elipse_12" data-name="Elipse 12" cx="1.408" cy="1.194" rx="1.408" ry="1.194" transform="translate(16.377 9.674) rotate(-120)" fill="none" stroke="#112770" stroke-width="20"/>
          <g id="Grupo_241" data-name="Grupo 241" transform="translate(15.201 6.244)">
            <path id="Caminho_106" data-name="Caminho 106" d="M2080.969,1798.19a1.294,1.294,0,0,0,.651-.171,1.356,1.356,0,0,0,.648-.955,1.85,1.85,0,0,0-1.161-2.011,1.359,1.359,0,0,0-1.152.084,1.569,1.569,0,0,0-.423,2.165h0A1.706,1.706,0,0,0,2080.969,1798.19Zm-.36-2.715a.971.971,0,0,1,.326.058,1.338,1.338,0,0,1,.831,1.438.853.853,0,0,1-.4.6,1.177,1.177,0,0,1-1.152-2A.786.786,0,0,1,2080.609,1795.475Z" transform="translate(-2079.282 -1794.963)" fill="#112770"/>
          </g>
          <path id="Caminho_107" data-name="Caminho 107" d="M2108.568,1816.129c-.062.139.131.36.43.493s.592.129.653-.009-.13-.36-.428-.493S2108.629,1815.991,2108.568,1816.129Z" transform="translate(-2092.303 -1809.164)" fill="#fff" opacity="0.5"/>
          <g id="Grupo_242" data-name="Grupo 242" transform="translate(10.529 6.952)">
            <path id="Caminho_108" data-name="Caminho 108" d="M1958.616,1823a.313.313,0,0,0,.058-.006l3.821-.882a.257.257,0,0,0,.2-.283l-.2-1.533,2.073-.59a.256.256,0,1,0-.14-.492l-2.285.65a.256.256,0,0,0-.183.28l.2,1.522-3.445.795-1.374-1.6a.255.255,0,0,0-.229-.086l-3.5.491a.256.256,0,0,0,.071.506l3.363-.471,1.384,1.607A.254.254,0,0,0,1958.616,1823Z" transform="translate(-1953.385 -1819.201)" fill="#112770"/>
          </g>
        </g>
        <g id="Grupo_264" data-name="Grupo 264" transform="translate(3.317)">
          <g id="Grupo_244" data-name="Grupo 244" transform="translate(0.255 0.256)">
            <path id="Caminho_109" data-name="Caminho 109" d="M1848.633,672.408c0,8.385,7.226,15.182,16.141,15.182a16.734,16.734,0,0,0,7.882-2,22.221,22.221,0,0,1-3.244.236,19.51,19.51,0,0,1-11.1-3.227,12.1,12.1,0,0,1-3.477-3.611,8.6,8.6,0,0,1,0-9.147,12.1,12.1,0,0,1,3.477-3.611,19.514,19.514,0,0,1,11.1-3.227,20.146,20.146,0,0,1,9.344,2.016,16.347,16.347,0,0,0-13.982-7.792C1855.859,657.226,1848.633,664.023,1848.633,672.408Z" transform="translate(-1848.633 -657.226)" fill="#fff"/>
          </g>
          <g id="Grupo_245" data-name="Grupo 245" transform="translate(0.255 5.416)" opacity="0.3">
            <path id="Caminho_110" data-name="Caminho 110" d="M2057.417,843.891c0,8.385,7.226,15.182,16.141,15.182a16.735,16.735,0,0,0,7.883-2,22.252,22.252,0,0,1-3.244.236,19.509,19.509,0,0,1-11.1-3.227,12.091,12.091,0,0,1-3.477-3.611,9.285,9.285,0,0,1-.92-2.009c-5.4-3.839-3.248-10.588-1.263-14.592A14.617,14.617,0,0,0,2057.417,843.891Z" transform="translate(-2057.417 -833.87)" fill="#112770"/>
          </g>
          <g id="Grupo_246" data-name="Grupo 246" transform="translate(5.138 6.032)">
            <path id="Caminho_111" data-name="Caminho 111" d="M1848.634,866.346a8.742,8.742,0,0,0,1.317,4.574,12.1,12.1,0,0,0,3.477,3.611,19.511,19.511,0,0,0,11.1,3.227,22.244,22.244,0,0,0,3.244-.237l-.15-1.011a21.151,21.151,0,0,1-3.094.225c-8.215,0-14.875-4.651-14.875-10.39s6.66-10.39,14.875-10.39a19.348,19.348,0,0,1,8.892,2.06l.451-1.067a20.148,20.148,0,0,0-9.344-2.015,19.512,19.512,0,0,0-11.1,3.227,12.1,12.1,0,0,0-3.477,3.611A8.742,8.742,0,0,0,1848.634,866.346Z" transform="translate(-1848.634 -854.934)" fill="#fff"/>
          </g>
          <g id="Grupo_247" data-name="Grupo 247" transform="translate(5.138 6.032)" opacity="0.3">
            <path id="Caminho_112" data-name="Caminho 112" d="M1848.634,866.346a8.742,8.742,0,0,0,1.317,4.574,12.1,12.1,0,0,0,3.477,3.611,19.511,19.511,0,0,0,11.1,3.227,22.244,22.244,0,0,0,3.244-.237l-.15-1.011a21.151,21.151,0,0,1-3.094.225c-8.215,0-14.875-4.651-14.875-10.39s6.66-10.39,14.875-10.39a19.348,19.348,0,0,1,8.892,2.06l.451-1.067a20.148,20.148,0,0,0-9.344-2.015,19.512,19.512,0,0,0-11.1,3.227,12.1,12.1,0,0,0-3.477,3.611A8.742,8.742,0,0,0,1848.634,866.346Z" transform="translate(-1848.634 -854.934)" fill="#112770"/>
          </g>
          <g id="Grupo_248" data-name="Grupo 248" transform="translate(6.159 7.054)">
            <path id="Caminho_113" data-name="Caminho 113" d="M1809.761,900.314c0,5.738,6.66,10.39,14.875,10.39a21.145,21.145,0,0,0,3.094-.225,14.985,14.985,0,0,0,2.979-2.18,14.586,14.586,0,0,0,1.3-1.4,13.9,13.9,0,0,0,1.924-3.1,13.383,13.383,0,0,0,0-10.98q-.191-.424-.409-.833a19.345,19.345,0,0,0-8.892-2.06,20.127,20.127,0,0,0-6.872,1.173C1813.007,892.83,1809.761,896.307,1809.761,900.314Z" transform="translate(-1809.761 -889.924)" fill="#112770"/>
          </g>
          <g id="Grupo_249" data-name="Grupo 249" transform="translate(6.16 8.227)">
            <path id="Caminho_114" data-name="Caminho 114" d="M1915.937,939.282c0,5.739,6.66,10.39,14.875,10.39a21.171,21.171,0,0,0,3.094-.225,15.056,15.056,0,0,0,2.98-2.18,14.638,14.638,0,0,0,1.3-1.4c-7.584,4.981-19.535-1-17.887-4.023,1.772-3.255,1.3-4.37.871-8.089-.165-1.419,1.317-2.676,2.768-3.693C1919.184,931.8,1915.937,935.275,1915.937,939.282Z" transform="translate(-1915.937 -930.065)" fill="#10235b"/>
          </g>
          <g id="Grupo_250" data-name="Grupo 250" transform="translate(0)">
            <path id="Caminho_115" data-name="Caminho 115" d="M1856.282,679.355a16.911,16.911,0,0,0,8-2.03.256.256,0,0,0-.157-.479,21.935,21.935,0,0,1-3.206.234,19.253,19.253,0,0,1-10.957-3.181,11.834,11.834,0,0,1-3.4-3.534,8.344,8.344,0,0,1,0-8.883,11.827,11.827,0,0,1,3.4-3.534,19.251,19.251,0,0,1,10.957-3.181,19.82,19.82,0,0,1,9.225,1.987.255.255,0,0,0,.337-.359,16.415,16.415,0,0,0-5.87-5.7,16.76,16.76,0,0,0-8.331-2.211,17.171,17.171,0,0,0-6.377,1.211,16.421,16.421,0,0,0-5.211,3.305,15.354,15.354,0,0,0-3.517,4.907,14.659,14.659,0,0,0,0,12.029,15.36,15.36,0,0,0,3.517,4.907,16.424,16.424,0,0,0,5.211,3.3A17.176,17.176,0,0,0,1856.282,679.355Zm6.406-1.833a16.222,16.222,0,0,1-6.406,1.322c-8.76,0-15.885-6.7-15.885-14.927s7.125-14.927,15.885-14.927a16.179,16.179,0,0,1,13.272,6.909,21.061,21.061,0,0,0-8.633-1.644,19.771,19.771,0,0,0-11.251,3.273,12.348,12.348,0,0,0-3.55,3.688,8.862,8.862,0,0,0,0,9.412,12.35,12.35,0,0,0,3.55,3.688,19.768,19.768,0,0,0,11.251,3.273C1861.512,677.591,1862.1,677.568,1862.688,677.522Z" transform="translate(-1839.886 -648.479)" fill="#112770"/>
          </g>
          <g id="Grupo_251" data-name="Grupo 251" transform="translate(4.881 5.776)">
            <path id="Caminho_116" data-name="Caminho 116" d="M1856.038,869.523a22.48,22.48,0,0,0,3.281-.239.253.253,0,0,0,.167-.1.257.257,0,0,0,.048-.19l-.149-1.011a.256.256,0,0,0-.291-.215,20.943,20.943,0,0,1-3.056.223c-8.062,0-14.621-4.546-14.621-10.134s6.559-10.134,14.621-10.134a19.028,19.028,0,0,1,8.773,2.031.256.256,0,0,0,.354-.127l.452-1.066a.255.255,0,0,0-.117-.326,20.326,20.326,0,0,0-9.462-2.045,19.765,19.765,0,0,0-11.251,3.274,12.345,12.345,0,0,0-3.55,3.688,8.861,8.861,0,0,0,0,9.412,12.349,12.349,0,0,0,3.55,3.688A19.769,19.769,0,0,0,1856.038,869.523Zm2.953-.709a22,22,0,0,1-2.953.2,19.255,19.255,0,0,1-10.958-3.181,11.831,11.831,0,0,1-3.4-3.534,8.347,8.347,0,0,1,0-8.883,11.832,11.832,0,0,1,3.4-3.534,19.256,19.256,0,0,1,10.958-3.181,20.016,20.016,0,0,1,9.015,1.879l-.252.595a19.644,19.644,0,0,0-8.763-1.963,20.671,20.671,0,0,0-5.863.827,16.54,16.54,0,0,0-4.8,2.262,11.332,11.332,0,0,0-3.259,3.38,7.833,7.833,0,0,0,0,8.353,11.328,11.328,0,0,0,3.259,3.38,16.533,16.533,0,0,0,4.8,2.262,20.669,20.669,0,0,0,5.863.827,21.521,21.521,0,0,0,2.878-.192Z" transform="translate(-1839.885 -846.187)" fill="#112770"/>
          </g>
          <g id="Grupo_252" data-name="Grupo 252" transform="translate(5.904 6.799)">
            <path id="Caminho_117" data-name="Caminho 117" d="M1816.145,902.467a21.455,21.455,0,0,0,3.132-.228.255.255,0,0,0,.087-.03,15.3,15.3,0,0,0,3.03-2.217,14.352,14.352,0,0,0,3.286-4.582,13.642,13.642,0,0,0,0-11.19c-.128-.286-.269-.571-.417-.849a.255.255,0,0,0-.107-.106,19.541,19.541,0,0,0-9.01-2.089,20.674,20.674,0,0,0-5.863.827,16.547,16.547,0,0,0-4.8,2.262,11.334,11.334,0,0,0-3.26,3.38,7.836,7.836,0,0,0,0,8.353,11.333,11.333,0,0,0,3.26,3.379,16.543,16.543,0,0,0,4.8,2.262A20.687,20.687,0,0,0,1816.145,902.467Zm3.01-.727a20.972,20.972,0,0,1-3.01.216c-8.062,0-14.62-4.546-14.62-10.134s6.558-10.135,14.62-10.135a19.056,19.056,0,0,1,8.7,1.995c.129.245.252.5.365.748a13.127,13.127,0,0,1,0,10.771,13.852,13.852,0,0,1-3.169,4.419A14.794,14.794,0,0,1,1819.155,901.74Z" transform="translate(-1801.013 -881.176)" fill="#112770"/>
          </g>
          <g id="Grupo_253" data-name="Grupo 253" transform="translate(2.654 10.166)">
            <path id="Caminho_118" data-name="Caminho 118" d="M2591.093,1001.72c0,2.911,1.352,5.271,3.016,5.271,1.6,0,2.9-2.17,3.009-4.915q.007-.177.007-.356c0-2.911-1.351-5.271-3.016-5.271-1.541,0-2.81,2.018-2.993,4.623Q2591.093,1001.391,2591.093,1001.72Z" transform="translate(-2591.093 -996.449)" fill="#fff"/>
          </g>
          <g id="Grupo_254" data-name="Grupo 254" transform="translate(5.671 10.166)">
            <path id="Caminho_119" data-name="Caminho 119" d="M2539,1006.992h1.522c1.6,0,2.9-2.17,3.008-4.915.005-.118.007-.236.007-.356,0-2.911-1.35-5.271-3.015-5.271H2539c1.666,0,3.015,2.36,3.015,5.271,0,.12,0,.238-.007.356C2541.907,1004.821,2540.6,1006.992,2539,1006.992Z" transform="translate(-2539.003 -996.449)" fill="#fff"/>
          </g>
          <g id="Grupo_255" data-name="Grupo 255" transform="translate(2.399 9.911)">
            <path id="Caminho_120" data-name="Caminho 120" d="M2585.618,998.756a2.835,2.835,0,0,0,2.354-1.672,8.558,8.558,0,0,0,0-7.708,2.494,2.494,0,0,0-4.709,0,8.558,8.558,0,0,0,0,7.708A2.837,2.837,0,0,0,2585.618,998.756Zm0-10.542a2.358,2.358,0,0,1,1.91,1.415,8.049,8.049,0,0,1,0,7.2,2,2,0,0,1-3.821,0,8.045,8.045,0,0,1,0-7.2A2.357,2.357,0,0,1,2585.618,988.213Z" transform="translate(-2582.346 -987.702)" fill="#112770"/>
          </g>
          <g id="Grupo_256" data-name="Grupo 256" transform="translate(5.415 9.911)">
            <path id="Caminho_121" data-name="Caminho 121" d="M2530.512,998.756h1.521a2.834,2.834,0,0,0,2.354-1.672,8.554,8.554,0,0,0,0-7.708,2.834,2.834,0,0,0-2.354-1.673h-1.521a.256.256,0,1,0,0,.511,2.36,2.36,0,0,1,1.91,1.415,8.049,8.049,0,0,1,0,7.2,2.36,2.36,0,0,1-1.91,1.415.256.256,0,1,0,0,.511Zm1.521-10.542a2.359,2.359,0,0,1,1.911,1.415,8.058,8.058,0,0,1,0,7.2,2.36,2.36,0,0,1-1.911,1.415h-.132a3.947,3.947,0,0,0,.965-1.161,8.558,8.558,0,0,0,0-7.708,3.944,3.944,0,0,0-.965-1.161Z" transform="translate(-2530.256 -987.702)" fill="#112770"/>
          </g>
          <g id="Grupo_257" data-name="Grupo 257" transform="translate(2.654 14.789)" opacity="0.3">
            <path id="Caminho_122" data-name="Caminho 122" d="M2539.24,1155.33c0,2.911,1.35,5.272,3.016,5.272h1.521c1.6,0,2.905-2.171,3.01-4.916a1.651,1.651,0,0,1-1.522,0,5.426,5.426,0,0,1-6-1Q2539.24,1155,2539.24,1155.33Z" transform="translate(-2539.24 -1154.682)" fill="#112770"/>
          </g>
          <g id="Grupo_258" data-name="Grupo 258" transform="translate(21.834 7.656)" opacity="0.5">
            <path id="Caminho_123" data-name="Caminho 123" d="M1856.578,918.849c-1.112-2.925-3.921-5.79-7.775-7.735a.316.316,0,0,1,.183-.593q.43.056.866.123a29.417,29.417,0,0,1,3.433.744,4.936,4.936,0,0,1,3.44,3.517l.008.028a13.923,13.923,0,0,1,.442,3.8A.309.309,0,0,1,1856.578,918.849Z" transform="translate(-1848.633 -910.518)" fill="#fff"/>
          </g>
          <g id="Grupo_259" data-name="Grupo 259" transform="translate(29.092 16.777)" opacity="0.5">
            <path id="Caminho_124" data-name="Caminho 124" d="M1854,1222.824a2.844,2.844,0,0,1-.109,1.6c-.064.2-.636,1.505-.933,1.13-.115-.146.016-.5.048-.658.064-.326.145-.649.239-.968a6.5,6.5,0,0,1,.326-.9,1.143,1.143,0,0,1,.123-.239C1853.775,1222.686,1853.948,1222.664,1854,1222.824Z" transform="translate(-1852.908 -1222.708)" fill="#fff"/>
          </g>
          <g id="Grupo_261" data-name="Grupo 261" transform="translate(11.492 9.966)" opacity="0.5">
            <g id="Grupo_260" data-name="Grupo 260" transform="translate(0 0)">
              <ellipse id="Elipse_13" data-name="Elipse 13" cx="1.636" cy="2.518" rx="1.636" ry="2.518" transform="translate(3.144 5.743) rotate(-163.961)" fill="#fff"/>
            </g>
          </g>
          <g id="Grupo_263" data-name="Grupo 263" transform="translate(12.038 15.902)" opacity="0.5">
            <g id="Grupo_262" data-name="Grupo 262" transform="translate(0)">
              <path id="Caminho_125" data-name="Caminho 125" d="M2437.022,1193.59c-.037.424-.332.745-.656.717a.7.7,0,0,1-.521-.821c.038-.424.332-.746.656-.717A.7.7,0,0,1,2437.022,1193.59Z" transform="translate(-2435.842 -1192.767)" fill="#fff"/>
            </g>
          </g>
        </g>
      </g>
    </g>
  </g>
</svg>
